<?xml version="1.0" standalone="no"?>
<!DOCTYPE svg >
<svg version="1.0" xmlns="http://www.w3.org/2000/svg"
 width="1050.000000pt" height="709.000000pt" viewBox="0 0 1050.000000 709.000000"
 preserveAspectRatio="xMidYMid meet">

<g transform="translate(0.000000,709.000000) scale(0.100000,-0.100000)"
fill="#000000" stroke="none">
<path d="M0 6840 l0 -250 45 0 45 0 0 -101 0 -102 178 6 c97 4 254 7 347 7
867 -1 5539 80 7535 130 652 16 1197 30 1213 30 l27 0 0 99 0 98 123 7 c67 3
257 8 422 11 165 3 316 8 335 10 25 3 29 2 15 -4 -11 -4 -164 -11 -340 -15
-176 -3 -371 -9 -432 -12 l-113 -7 0 -95 0 -95 143 6 c78 4 294 10 479 13
l338 7 0 98 0 98 -27 4 c-26 4 -26 4 5 6 l32 1 0 -100 0 -100 66 0 65 0 -3
250 -3 250 -673 0 -673 0 18 -32 c13 -24 18 -56 18 -118 0 -74 -3 -91 -27
-130 -58 -99 -147 -152 -253 -152 -198 0 -336 198 -266 382 l19 50 -4329 0
-4329 0 0 -250z m522 208 c59 -25 129 -99 152 -160 23 -59 18 -166 -9 -223
-48 -99 -147 -160 -260 -159 -79 0 -136 23 -193 78 -30 28 -90 126 -77 126 2
0 16 -21 29 -47 49 -96 132 -146 241 -147 156 -1 264 100 273 257 5 84 -15
144 -70 203 -111 120 -318 113 -415 -14 -41 -54 -67 -140 -60 -200 4 -35 2
-41 -5 -28 -14 26 -4 115 20 168 39 89 119 153 209 167 61 10 105 4 165 -21z
m9965 -85 c-2 -16 -4 -3 -4 27 0 30 2 43 4 28 2 -16 2 -40 0 -55z"/>
<path d="M8653 7053 c-79 -184 54 -385 252 -385 105 0 188 48 243 142 24 39
27 56 27 130 0 62 -5 94 -18 118 l-18 32 -235 0 -235 0 -16 -37z"/>
<path d="M0 6485 l0 -95 40 0 40 0 0 95 0 95 -40 0 -40 0 0 -95z"/>
<path d="M10270 6573 c-532 -17 -3610 -89 -4635 -108 -1520 -28 -1798 -33
-2145 -40 -140 -3 -820 -12 -1510 -20 -690 -8 -1418 -17 -1617 -21 l-363 -6 0
-259 0 -259 50 0 50 0 0 -100 0 -101 273 6 c149 3 844 12 1542 21 1586 18
4652 75 6215 114 652 16 1206 30 1233 30 l47 0 0 99 0 99 103 6 c56 3 217 8
357 11 140 3 315 8 388 11 l132 6 0 -101 0 -101 55 0 55 0 0 360 0 360 -67 -2
c-38 -1 -111 -4 -163 -5z m-1508 -70 c26 -23 22 -47 -13 -88 l-31 -35 31 0
c21 0 31 -5 31 -15 0 -12 -13 -15 -55 -15 -67 0 -69 10 -14 66 27 28 40 48 36
58 -8 20 -47 21 -47 1 0 -8 -7 -15 -15 -15 -21 0 -19 30 3 46 23 18 52 17 74
-3z m132 -4 c18 -26 12 -44 -27 -86 l-31 -33 37 0 c26 0 37 -4 37 -15 0 -12
-13 -15 -60 -15 -34 0 -60 4 -60 10 0 6 18 30 40 54 39 43 49 69 30 81 -5 3
-19 -4 -31 -16 -26 -26 -45 -12 -23 19 20 29 68 30 88 1z m284 9 c24 -24 14
-64 -23 -97 l-36 -31 36 0 c24 0 35 -4 35 -15 0 -12 -13 -15 -55 -15 -67 0
-70 11 -15 65 38 38 50 68 31 79 -14 9 -41 -4 -41 -20 0 -16 -16 -19 -25 -3
-20 31 65 65 93 37z m122 -3 c7 -8 10 -26 8 -40 -3 -14 -1 -28 3 -31 15 -9 10
-46 -8 -66 -28 -31 -93 -18 -93 19 0 18 20 16 34 -3 15 -20 46 -8 46 18 0 11
-8 22 -20 25 -24 6 -26 19 -5 27 8 3 15 12 15 20 0 23 -22 31 -35 13 -15 -20
-35 -22 -35 -4 0 35 66 51 90 22z m-1202 -33 c18 -23 15 -112 -5 -134 -22 -25
-59 -23 -77 4 -16 23 -22 104 -8 124 22 33 65 36 90 6z m302 8 c28 -28 25 -44
-16 -90 l-36 -40 36 0 c25 0 36 -4 36 -15 0 -11 -13 -15 -54 -15 -30 0 -58 4
-61 10 -3 5 15 32 41 60 29 31 44 55 40 65 -7 20 -46 20 -46 0 0 -8 -9 -15
-20 -15 -17 0 -19 3 -10 20 22 41 60 50 90 20z m110 -4 c0 -12 3 -51 6 -85 6
-52 5 -61 -10 -61 -12 0 -16 10 -16 43 0 51 -11 70 -33 61 -25 -9 -21 7 11 37
34 34 42 35 42 5z m-538 -3 c26 -23 23 -38 -18 -83 l-36 -40 36 0 c25 0 36 -4
36 -15 0 -12 -13 -15 -60 -15 -35 0 -60 4 -60 10 0 6 21 33 47 61 44 47 46 51
29 67 -16 16 -18 16 -37 -7 -25 -31 -46 -15 -23 17 18 26 60 29 86 5z m-430
-75 c2 -48 -1 -86 -7 -90 -12 -9 -23 24 -24 74 -1 31 -4 35 -21 31 -11 -3 -20
-2 -20 3 0 9 51 61 62 63 3 1 8 -36 10 -81z m138 62 c30 -30 28 -103 -5 -135
-29 -30 -36 -31 -66 -6 -19 15 -21 22 -12 32 10 10 14 9 19 -4 5 -14 44 -25
44 -13 0 2 3 12 6 21 5 13 2 15 -17 10 -35 -9 -62 16 -62 55 0 56 54 79 93 40z
m-536 -36 c11 -83 8 -134 -9 -134 -12 0 -15 13 -15 61 0 56 -2 60 -20 54 -11
-4 -20 -2 -20 4 0 11 40 58 51 60 4 1 9 -20 13 -45z m140 24 c11 -15 12 -26 5
-39 -6 -11 -6 -20 1 -24 21 -13 11 -64 -16 -82 -24 -15 -29 -15 -53 -2 -23 13
-26 21 -27 74 0 67 15 95 52 95 13 0 30 -10 38 -22z m-944 -84 c0 -68 -3 -84
-15 -84 -12 0 -15 13 -15 61 0 56 -2 60 -20 54 -12 -4 -20 -2 -20 5 0 14 53
60 62 53 5 -2 8 -42 8 -89z m132 79 c22 -20 23 -33 3 -33 -8 0 -15 5 -15 11 0
17 -45 6 -48 -13 -2 -12 2 -15 16 -11 11 2 29 0 41 -6 41 -23 17 -111 -31
-111 -35 0 -58 36 -58 90 0 76 47 114 92 73z m278 -68 c0 -69 -3 -85 -15 -85
-12 0 -15 14 -15 62 0 48 -3 59 -12 50 -15 -15 -28 -16 -28 -2 0 12 50 59 63
60 4 0 7 -38 7 -85z m150 76 c0 -5 -11 -32 -25 -59 -14 -28 -25 -62 -25 -76 0
-16 -6 -26 -15 -26 -21 0 -19 46 5 98 l19 42 -34 0 c-24 0 -35 5 -35 15 0 12
13 15 55 15 30 0 55 -4 55 -9z m-980 -43 c0 -18 3 -57 6 -85 6 -45 4 -53 -10
-53 -10 0 -16 8 -16 24 0 13 -3 38 -6 55 -5 25 -10 30 -25 26 -27 -9 -24 4 9
36 35 37 42 36 42 -3z m150 17 c0 -10 -10 -15 -29 -15 -16 0 -31 -6 -34 -14
-4 -10 -1 -13 9 -9 8 3 25 -2 39 -11 29 -19 34 -66 9 -90 -29 -30 -94 -15 -94
21 0 18 20 16 35 -4 17 -23 45 -10 45 21 0 32 -16 41 -46 25 -32 -17 -35 -11
-28 44 l7 47 43 0 c32 0 44 -4 44 -15z m-960 -86 c0 -68 -3 -90 -12 -87 -8 3
-14 27 -16 60 -3 50 -5 55 -22 51 -11 -3 -20 -2 -20 2 0 9 52 62 63 64 4 0 7
-40 7 -90z m135 71 c11 -12 15 -28 12 -41 -3 -12 -1 -29 6 -39 16 -26 -5 -68
-39 -76 -22 -6 -32 -2 -52 22 -17 20 -21 29 -12 32 7 3 19 -3 26 -13 17 -23
48 -15 52 13 3 16 -2 22 -17 22 -28 0 -35 17 -11 30 11 6 20 17 20 25 0 20
-36 19 -44 0 -8 -22 -26 -18 -26 5 0 38 56 52 85 20z m-527 -78 c2 -68 0 -82
-13 -82 -12 0 -15 13 -15 62 0 48 -3 59 -12 50 -14 -14 -28 -16 -28 -2 0 14
43 58 55 56 6 -2 11 -39 13 -84z m140 76 c21 -21 13 -56 -19 -93 l-31 -35 31
0 c21 0 31 -5 31 -15 0 -12 -13 -15 -55 -15 -67 0 -70 11 -15 65 47 46 53 75
15 75 -16 0 -25 -6 -25 -15 0 -8 -7 -15 -15 -15 -20 0 -19 19 2 42 18 20 63
24 81 6z m662 -35 c0 -27 3 -65 6 -85 5 -30 3 -38 -9 -38 -11 0 -17 15 -22 55
-6 48 -10 55 -26 50 -11 -4 -19 -3 -19 1 0 10 53 63 63 64 4 0 7 -21 7 -47z
m140 -3 c0 -27 5 -50 10 -50 6 0 10 -7 10 -15 0 -8 -4 -15 -10 -15 -5 0 -10
-9 -10 -20 0 -11 -7 -20 -15 -20 -8 0 -15 9 -15 20 0 16 -7 20 -35 20 -19 0
-35 5 -35 10 0 19 73 120 86 120 10 0 14 -15 14 -50z m-1370 -55 c0 -69 -3
-85 -15 -85 -12 0 -15 13 -15 56 0 51 -2 55 -20 49 -12 -4 -20 -2 -20 5 0 12
50 59 63 60 4 0 7 -38 7 -85z m130 0 c0 -69 -3 -85 -15 -85 -12 0 -15 13 -15
60 0 58 -1 60 -20 50 -28 -15 -26 5 3 36 39 42 47 32 47 -61z m-536 44 c3 -17
6 -56 6 -85 0 -41 -4 -54 -15 -54 -12 0 -15 13 -15 60 0 58 -1 60 -20 50 -28
-15 -27 7 2 37 28 30 34 29 42 -8z m140 9 c21 -30 21 -106 -1 -130 -20 -22
-51 -23 -75 -1 -24 21 -25 114 -2 137 22 23 60 20 78 -6z m-454 -8 c22 -22 27
-87 10 -120 -18 -34 -48 -44 -76 -25 -27 17 -32 35 -9 35 8 0 15 -4 15 -10 0
-5 9 -10 20 -10 11 0 20 2 20 4 0 2 3 11 6 19 4 11 -1 13 -18 10 -34 -6 -61
19 -61 57 0 56 54 79 93 40z m-396 -12 c11 -15 12 -26 5 -39 -6 -11 -6 -20 1
-24 21 -13 11 -64 -16 -82 -24 -15 -29 -15 -53 -2 -23 13 -26 21 -27 74 -1 67
15 95 52 95 13 0 30 -10 38 -22z m-2446 -4 c32 -22 27 -53 -15 -96 l-37 -38
37 0 c26 0 37 -4 37 -15 0 -12 -13 -15 -55 -15 -68 0 -72 15 -15 70 22 22 40
46 40 55 0 23 -31 31 -45 12 -15 -21 -35 -22 -35 -3 0 16 37 46 55 46 6 0 21
-7 33 -16z m832 -38 c0 -34 5 -57 13 -60 10 -5 10 -7 0 -12 -7 -3 -13 -14 -13
-25 0 -10 -7 -19 -15 -19 -8 0 -15 7 -15 15 0 10 -11 15 -35 15 -20 0 -35 5
-35 12 0 19 74 128 88 128 8 0 12 -17 12 -54z m791 35 c18 -14 21 -23 13 -31
-8 -8 -14 -7 -24 5 -11 13 -40 21 -40 11 0 -2 -3 -12 -6 -21 -5 -13 -2 -15 18
-10 20 5 30 1 47 -21 23 -29 21 -60 -7 -81 -45 -36 -92 4 -92 76 0 42 4 53 26
70 33 26 36 26 65 2z m-1201 -6 c7 -8 10 -26 8 -40 -3 -14 -1 -28 3 -31 5 -3
9 -15 9 -26 0 -54 -74 -79 -105 -35 -14 20 -14 22 0 25 9 2 22 -4 29 -13 16
-22 48 -9 44 19 -2 13 -12 22 -25 24 -28 4 -30 18 -3 25 22 6 27 32 8 43 -6 4
-16 0 -23 -9 -15 -20 -35 -22 -35 -4 0 35 66 51 90 22z m808 3 c-3 -7 -19 -14
-36 -16 -38 -4 -43 -22 -7 -22 30 0 59 -40 50 -69 -16 -51 -68 -67 -100 -31
-15 16 -16 23 -6 33 10 9 14 8 22 -5 21 -37 67 -12 52 28 -5 13 -14 15 -44 10
l-39 -6 6 32 c10 57 11 58 60 58 32 0 44 -4 42 -12z m822 5 c0 -4 -11 -30 -25
-58 -13 -27 -27 -62 -30 -77 -3 -16 -12 -28 -20 -28 -18 0 -11 48 17 103 l18
37 -35 0 c-24 0 -35 5 -35 15 0 12 13 15 55 15 30 0 55 -3 55 -7z m-2480 -88
c0 -69 -3 -85 -15 -85 -12 0 -15 14 -15 62 0 48 -3 59 -12 50 -15 -15 -28 -16
-28 -2 0 12 50 59 63 60 4 0 7 -38 7 -85z"/>
<path d="M8034 6457 c-3 -8 -4 -34 -2 -58 3 -37 7 -45 26 -47 22 -3 23 -1 20
55 -2 46 -7 59 -21 61 -9 2 -20 -3 -23 -11z"/>
<path d="M7617 6436 c-10 -26 4 -47 27 -44 15 2 21 10 21 28 0 29 -38 41 -48
16z"/>
<path d="M7225 6430 c-8 -13 3 -30 20 -30 14 0 27 24 18 34 -10 9 -31 7 -38
-4z"/>
<path d="M7231 6370 c-19 -11 -9 -45 14 -45 13 0 21 8 23 21 3 23 -17 37 -37
24z"/>
<path d="M6414 6355 c-9 -23 3 -45 26 -45 16 0 20 7 20 30 0 23 -4 30 -20 30
-11 0 -23 -7 -26 -15z"/>
<path d="M5610 6340 c-9 -16 -8 -20 5 -20 8 0 15 9 15 20 0 11 -2 20 -5 20 -2
0 -9 -9 -15 -20z"/>
<path d="M3967 6363 c-12 -11 -8 -98 5 -111 19 -19 38 6 38 52 0 49 -23 80
-43 59z"/>
<path d="M3507 6336 c-10 -26 4 -47 27 -44 15 2 21 10 21 28 0 29 -38 41 -48
16z" />
<rect onclick="alert('hello')" x="20" y="50" style="fill: blue" />
<path d="M3115 6330 c-8 -14 3 -30 21 -30 8 0 14 9 14 20 0 21 -24 28 -35 10z"/>
<path d="M3121 6270 c-19 -11 -9 -45 14 -45 13 0 21 8 23 21 3 23 -17 37 -37
24z"/>
<path d="M1506 6275 c-16 -24 -16 -25 4 -25 15 0 20 7 20 25 0 14 -2 25 -4 25
-2 0 -11 -11 -20 -25z"/>
<path d="M2294 6255 c-9 -23 3 -45 25 -45 21 0 33 22 25 45 -4 8 -15 15 -25
15 -11 0 -22 -7 -25 -15z"/>
<path d="M9850 6034 c-223 -6 -411 -12 -417 -13 -10 -1 -13 -27 -13 -97 l0
-97 118 7 c64 3 266 8 447 11 182 3 345 8 363 11 l32 5 0 94 0 95 -62 -2 c-35
0 -245 -7 -468 -14z"/>
<path d="M0 5755 l0 -95 45 0 45 0 0 95 0 95 -45 0 -45 0 0 -95z"/>
<path d="M8675 5804 c-1988 -50 -4993 -108 -6775 -129 -701 -8 -1416 -18
-1587 -21 l-313 -6 0 -259 0 -259 49 0 49 0 4 -94 c1 -52 5 -96 8 -99 20 -18
5843 79 8000 133 652 16 1215 30 1253 30 l67 0 0 99 0 99 73 6 c39 3 191 8
337 11 146 3 334 8 418 11 l152 7 -2 -54 -2 -54 -3 49 -4 49 -142 -7 c-78 -3
-266 -8 -417 -11 -151 -3 -303 -8 -337 -11 l-63 -6 0 -95 0 -95 83 6 c45 3
233 8 417 11 184 3 363 8 397 11 l62 5 4 42 4 42 1 -42 2 -43 45 0 45 0 0 360
0 360 -72 -1 c-40 -1 -829 -21 -1753 -45z m96 -24 c30 -16 24 -59 -13 -97
l-32 -33 31 0 c17 0 34 -6 37 -12 5 -10 8 -10 12 1 4 8 24 32 45 52 42 42 49
63 22 74 -12 4 -23 -1 -32 -14 -17 -26 -31 -27 -31 -3 0 41 57 57 92 25 27
-24 22 -43 -19 -85 l-37 -38 37 0 c26 0 37 -4 37 -15 0 -12 -20 -15 -120 -15
-138 0 -142 4 -80 65 47 46 53 75 15 75 -16 0 -25 -6 -25 -15 0 -8 -7 -15 -15
-15 -20 0 -19 19 2 42 18 20 45 23 74 8z m421 -7 c26 -23 23 -38 -18 -83 l-36
-40 36 0 c25 0 36 -4 36 -15 0 -12 -13 -15 -60 -15 -40 0 -60 4 -60 12 0 7 21
34 47 60 45 46 46 49 29 66 -16 16 -18 16 -35 -5 -24 -29 -47 -15 -25 15 18
26 60 29 86 5z m124 -4 c15 -16 16 -24 6 -39 -7 -12 -8 -21 -2 -25 14 -9 12
-59 -2 -73 -26 -26 -98 -4 -98 29 0 14 20 11 36 -6 8 -8 21 -12 29 -9 22 9 18
45 -5 51 -25 7 -25 11 3 34 18 15 19 20 8 28 -16 10 -41 4 -41 -10 0 -5 -7 -9
-15 -9 -19 0 -19 14 1 34 22 22 57 20 80 -5z m-1217 -16 c43 -35 36 -144 -10
-158 -68 -22 -110 95 -54 150 29 30 36 30 64 8z m309 1 c32 -22 27 -53 -15
-96 l-37 -38 37 0 c38 0 49 -13 21 -24 -9 -3 -33 -6 -55 -6 -52 0 -52 21 2 76
27 28 40 48 36 58 -8 20 -36 21 -43 1 -8 -19 -34 -20 -34 -1 0 16 37 46 55 46
6 0 21 -7 33 -16z m122 -69 c0 -69 -3 -85 -15 -85 -12 0 -15 14 -15 62 0 48
-3 59 -12 50 -32 -32 -37 -3 -5 32 40 43 47 34 47 -59z m-536 42 c9 -24 6 -31
-29 -67 l-39 -40 37 0 c26 0 37 -4 37 -15 0 -12 -13 -15 -55 -15 -68 0 -72 15
-15 70 43 42 50 67 24 77 -11 4 -23 -2 -35 -18 -16 -21 -18 -22 -24 -6 -11 28
14 48 54 45 29 -2 38 -8 45 -31z m-436 -65 c2 -68 0 -82 -13 -82 -12 0 -15 13
-15 62 0 48 -3 59 -12 50 -14 -14 -28 -16 -28 -2 0 14 43 58 55 56 6 -2 11
-39 13 -84z m134 71 c24 -21 25 -114 2 -137 -22 -23 -71 -20 -84 3 -14 26 7
39 24 15 15 -20 46 -13 46 12 0 11 -5 14 -16 10 -26 -10 -64 20 -64 51 0 54
54 81 92 46z m-532 -78 c0 -69 -3 -85 -15 -85 -12 0 -15 13 -15 56 0 51 -2 55
-20 49 -12 -4 -20 -2 -20 5 0 12 50 59 63 60 4 0 7 -38 7 -85z m131 68 c8 -9
15 -30 16 -47 1 -17 3 -42 5 -55 5 -35 -39 -65 -75 -52 -29 11 -47 55 -29 73
6 6 8 24 5 39 -3 17 0 35 7 44 17 20 54 19 71 -2z m-941 -89 c0 -68 -3 -84
-15 -84 -12 0 -15 13 -15 61 0 56 -2 60 -20 54 -11 -3 -20 -3 -20 1 0 14 53
63 62 58 4 -3 8 -43 8 -90z m131 86 c23 -13 26 -40 4 -40 -8 0 -15 5 -15 10 0
6 -9 10 -20 10 -11 0 -20 -2 -20 -4 0 -2 -2 -11 -5 -19 -5 -10 1 -13 23 -9 22
3 33 -2 46 -19 21 -31 20 -51 -4 -77 -27 -28 -45 -28 -75 3 -28 27 -33 80 -14
118 20 38 44 46 80 27z m279 -75 c0 -69 -3 -85 -15 -85 -12 0 -15 13 -15 56 0
51 -2 55 -20 49 -12 -4 -20 -2 -20 5 0 12 50 59 63 60 4 0 7 -38 7 -85z m160
81 c0 -2 -13 -30 -30 -61 -16 -31 -30 -68 -30 -81 0 -15 -6 -24 -15 -24 -21 0
-19 36 5 89 11 24 20 45 20 47 0 2 -16 4 -35 4 -24 0 -35 5 -35 15 0 12 13 15
60 15 33 0 60 -2 60 -4z m-980 -101 c0 -69 -3 -85 -15 -85 -12 0 -15 13 -15
60 0 58 -1 60 -20 50 -28 -15 -27 6 3 35 40 41 47 32 47 -60z m150 70 c0 -10
-11 -15 -35 -15 -24 0 -35 -5 -35 -15 0 -9 6 -12 16 -8 18 7 64 -33 64 -57 0
-30 -30 -60 -60 -60 -28 0 -60 22 -60 41 0 14 20 11 36 -6 20 -20 31 -19 44 4
20 38 -17 70 -47 40 -27 -27 -36 17 -17 79 5 19 94 16 94 -3z m-966 -32 c12
-73 7 -143 -9 -143 -12 0 -15 14 -15 67 0 52 -3 64 -12 55 -32 -32 -37 -3 -5
32 30 33 33 32 41 -11z m131 24 c12 -10 16 -22 13 -41 -3 -14 -1 -29 3 -32 5
-3 9 -18 9 -34 0 -21 -8 -35 -26 -47 -24 -15 -29 -15 -53 -2 -27 15 -41 49
-20 49 6 0 17 -7 24 -17 16 -21 45 -10 45 17 0 18 -10 25 -32 21 -5 0 -8 6 -8
14 0 8 7 15 15 15 8 0 15 9 15 20 0 13 -7 20 -20 20 -11 0 -20 -7 -20 -15 0
-17 -16 -20 -25 -4 -9 14 23 49 45 49 9 0 24 -6 35 -13z m-525 -82 c0 -69 -3
-85 -15 -85 -12 0 -15 13 -15 56 0 51 -2 55 -20 49 -12 -4 -20 -2 -20 5 0 12
50 59 63 60 4 0 7 -38 7 -85z m138 73 c21 -21 13 -61 -20 -95 l-32 -33 37 0
c26 0 37 -4 37 -15 0 -12 -13 -15 -60 -15 -34 0 -60 4 -60 10 0 6 18 30 40 54
22 24 40 50 40 59 0 28 -22 31 -42 7 -14 -17 -22 -20 -30 -12 -9 9 -7 17 7 32
20 22 64 27 83 8z m672 -73 c0 -69 -3 -85 -15 -85 -12 0 -15 13 -15 60 0 58
-1 60 -20 50 -28 -15 -27 6 3 35 40 41 47 32 47 -60z m130 35 c0 -27 5 -50 10
-50 6 0 10 -7 10 -15 0 -8 -4 -15 -10 -15 -5 0 -10 -9 -10 -20 0 -11 -7 -20
-15 -20 -8 0 -15 9 -15 20 0 16 -7 20 -35 20 -19 0 -35 3 -35 7 0 16 76 123
88 123 8 0 12 -17 12 -50z m-1370 -9 c0 -21 3 -59 6 -85 6 -37 4 -46 -8 -46
-11 0 -18 16 -23 55 -6 49 -9 55 -26 50 -26 -9 -24 4 8 37 36 37 43 35 43 -11z
m130 -46 c0 -69 -3 -85 -15 -85 -12 0 -15 13 -15 60 0 58 -1 60 -20 50 -28
-15 -27 6 3 35 40 41 47 32 47 -60z m-530 -10 c0 -69 -3 -85 -15 -85 -12 0
-15 13 -15 60 0 58 -1 60 -20 50 -28 -15 -27 6 3 35 40 41 47 32 47 -60z m148
41 c24 -75 -17 -144 -73 -122 -34 13 -47 105 -19 144 12 17 24 22 47 20 27 -3
34 -9 45 -42z m-466 17 c13 -12 18 -30 18 -67 0 -57 -5 -68 -37 -85 -25 -13
-57 -2 -66 23 -8 20 15 26 29 8 13 -18 44 -9 44 12 0 9 -7 12 -20 9 -27 -7
-60 23 -60 55 0 53 54 79 92 45z m-401 -10 c8 -9 15 -30 16 -47 1 -17 3 -42 5
-55 5 -35 -39 -65 -75 -52 -30 12 -46 54 -27 75 8 11 8 20 1 34 -23 44 48 84
80 45z m-2447 1 c47 -18 39 -67 -18 -116 l-31 -27 43 -1 c67 0 48 -24 -21 -28
-70 -4 -72 5 -12 69 29 31 43 54 39 63 -8 20 -43 21 -50 1 -7 -17 -34 -21 -34
-5 0 15 38 50 54 50 8 0 22 -3 30 -6z m836 -48 c0 -34 5 -57 13 -60 10 -5 10
-7 0 -12 -7 -3 -13 -14 -13 -25 0 -10 -7 -19 -15 -19 -8 0 -15 8 -15 18 0 13
-8 17 -32 17 -17 0 -33 5 -35 11 -4 12 74 124 88 124 5 0 9 -24 9 -54z m791
44 c10 -6 19 -17 19 -25 0 -18 -27 -20 -33 -2 -3 9 -9 9 -23 1 -29 -17 -30
-36 -1 -29 18 5 31 1 46 -14 25 -25 27 -49 5 -79 -21 -30 -58 -28 -84 6 -29
35 -23 107 10 134 26 21 34 22 61 8z m-1201 -15 c7 -8 10 -26 8 -40 -3 -14 -1
-28 3 -31 13 -8 11 -58 -3 -72 -20 -20 -76 -15 -88 7 -5 11 -10 22 -10 25 0
11 22 6 36 -9 8 -8 21 -12 29 -9 22 9 18 45 -5 51 -24 6 -26 19 -5 27 8 3 15
12 15 20 0 23 -22 31 -35 13 -12 -16 -35 -23 -35 -11 0 3 5 14 10 25 13 23 62
26 80 4z m810 6 c0 -5 -16 -12 -35 -15 -38 -8 -48 -26 -13 -26 29 0 58 -28 58
-57 0 -28 -33 -63 -60 -63 -21 0 -60 33 -60 50 0 16 28 12 38 -6 14 -25 47
-13 47 16 0 23 -4 25 -37 23 -33 -2 -38 0 -38 20 0 56 10 67 56 67 24 0 44 -4
44 -9z m830 7 c0 -2 -14 -30 -30 -62 -17 -32 -30 -69 -30 -82 0 -15 -6 -24
-15 -24 -21 0 -19 46 5 98 l19 42 -34 0 c-24 0 -35 5 -35 15 0 12 13 15 60 15
33 0 60 -1 60 -2z m-2486 -45 c11 -72 7 -133 -9 -133 -12 0 -15 13 -15 60 0
58 -1 60 -20 50 -28 -15 -27 7 2 37 29 31 34 29 42 -14z"/>
<path d="M8044 5715 c-10 -41 4 -95 25 -95 21 0 31 19 31 56 0 57 -44 87 -56
39z"/>
<path d="M7632 5693 c2 -20 9 -28 23 -28 14 0 21 8 23 28 3 23 0 27 -23 27
-23 0 -26 -4 -23 -27z"/>
<path d="M7242 5693 c2 -10 10 -18 18 -18 8 0 16 8 18 18 2 12 -3 17 -18 17
-15 0 -20 -5 -18 -17z"/>
<path d="M7242 5641 c-20 -12 -10 -46 14 -49 25 -4 40 24 23 44 -13 16 -19 17
-37 5z"/>
<path d="M6425 5630 c-11 -17 6 -50 25 -50 19 0 36 33 25 50 -3 5 -15 10 -25
10 -10 0 -22 -5 -25 -10z"/>
<path d="M5620 5610 c-9 -16 -8 -20 5 -20 8 0 15 9 15 20 0 11 -2 20 -5 20 -2
0 -9 -9 -15 -20z"/>
<path d="M3975 5617 c-4 -13 -5 -39 -3 -58 2 -26 8 -35 24 -37 26 -4 36 27 26
78 -9 42 -38 53 -47 17z"/>
<path d="M3524 5605 c-9 -23 4 -47 23 -43 11 2 19 14 21 31 3 22 -1 27 -18 27
-11 0 -23 -7 -26 -15z"/>
<path d="M3132 5593 c2 -10 10 -18 18 -18 8 0 16 8 18 18 2 12 -3 17 -18 17
-15 0 -20 -5 -18 -17z"/>
<path d="M3132 5541 c-20 -12 -10 -46 14 -49 25 -4 40 24 23 44 -13 16 -19 17
-37 5z"/>
<path d="M1522 5550 c-16 -26 -15 -30 3 -30 9 0 15 9 15 25 0 30 -2 31 -18 5z"/>
<path d="M2307 5526 c-10 -26 4 -47 27 -44 15 2 21 10 21 28 0 29 -38 41 -48
16z"/>
<path d="M0 5025 l0 -95 51 0 c48 0 51 1 45 23 -3 12 -6 55 -6 95 l0 72 -45 0
-45 0 0 -95z"/>
<path d="M8660 5075 c-927 -24 -2065 -50 -2530 -59 -465 -9 -960 -18 -1100
-21 -763 -17 -2016 -36 -3185 -50 -726 -8 -1438 -18 -1582 -21 l-263 -6 0
-260 0 -260 55 4 55 5 0 -103 0 -102 178 4 c97 2 582 9 1077 14 1392 15 1631
19 3645 56 1037 19 2423 48 3080 64 657 17 1232 30 1278 30 l82 0 0 100 0 99
33 5 c51 8 437 12 392 4 -22 -4 -117 -7 -212 -7 -94 -1 -178 -4 -187 -7 -13
-5 -16 -24 -16 -101 l0 -95 48 6 c26 3 200 8 387 11 187 3 382 8 433 11 l92 6
0 95 0 94 -242 -7 c-134 -3 -241 -4 -238 -2 3 3 114 9 248 13 l242 7 0 -101 0
-101 35 0 35 0 0 360 0 360 -77 -1 c-43 -1 -836 -21 -1763 -44z m118 -27 c21
-21 13 -61 -20 -95 l-32 -33 37 0 c26 0 37 -4 37 -15 0 -12 -13 -15 -60 -15
-34 0 -60 4 -60 10 0 6 18 30 40 54 22 24 40 51 40 60 0 20 -38 22 -46 1 -7
-18 -34 -20 -34 -3 0 37 70 64 98 36z m136 -21 c9 -24 6 -31 -29 -67 l-39 -40
37 0 c26 0 37 -4 37 -15 0 -12 -13 -15 -55 -15 -68 0 -71 13 -15 69 43 42 50
68 23 78 -11 4 -22 -1 -31 -15 -18 -27 -32 -28 -32 -4 0 28 22 43 60 40 28 -2
37 -9 44 -31z m290 0 c9 -24 6 -31 -29 -67 l-39 -40 37 0 c26 0 37 -4 37 -15
0 -12 -13 -15 -60 -15 -37 0 -60 4 -60 11 0 6 20 31 45 56 25 24 45 51 45 59
0 22 -31 30 -45 11 -15 -20 -35 -22 -35 -4 0 24 24 38 60 35 28 -2 37 -9 44
-31z m118 8 c9 -19 9 -28 0 -37 -9 -9 -8 -16 5 -31 16 -17 16 -21 2 -45 -19
-35 -67 -42 -94 -12 -14 15 -16 23 -7 32 8 8 16 5 30 -12 17 -21 19 -21 35 -6
20 20 12 46 -14 46 -25 0 -24 20 1 27 24 6 26 31 4 40 -10 4 -20 0 -26 -10 -9
-16 -38 -24 -38 -10 0 18 36 43 62 43 21 0 32 -7 40 -25z m-1217 -20 c43 -42
29 -139 -21 -151 -41 -11 -69 24 -69 87 0 41 4 54 24 70 30 25 37 24 66 -6z
m307 8 c28 -25 22 -53 -19 -96 l-38 -39 39 4 c25 2 41 -2 44 -10 2 -6 -3 -12
-11 -12 -8 0 -35 -3 -61 -6 -39 -6 -46 -4 -46 10 0 10 18 35 40 57 44 44 53
79 20 79 -11 0 -23 -7 -26 -15 -8 -19 -34 -20 -34 -1 0 17 37 46 59 46 8 0 23
-7 33 -17z m118 -68 c0 -69 -3 -85 -15 -85 -12 0 -15 14 -15 62 0 48 -3 59
-12 50 -15 -15 -28 -16 -28 -2 0 12 50 59 63 60 4 0 7 -38 7 -85z m-542 63
c21 -21 13 -51 -25 -90 l-37 -38 37 0 c26 0 37 -4 37 -15 0 -12 -13 -15 -55
-15 -67 0 -70 11 -15 68 22 22 40 48 40 57 0 23 -31 31 -45 12 -15 -20 -35
-22 -35 -4 0 22 22 37 55 37 17 0 36 -5 43 -12z m-428 -83 c0 -69 -3 -85 -15
-85 -12 0 -15 14 -15 62 0 48 -3 59 -12 50 -15 -15 -28 -16 -28 -2 0 12 50 59
63 60 4 0 7 -38 7 -85z m132 68 c33 -38 34 -106 1 -138 -21 -22 -70 -19 -83 4
-5 11 -10 22 -10 25 0 12 23 5 35 -11 15 -20 40 -12 48 16 4 18 2 19 -15 10
-28 -15 -68 13 -68 48 0 54 59 83 92 46z m-532 -78 c0 -69 -3 -85 -15 -85 -12
0 -15 13 -15 56 0 51 -2 55 -20 49 -12 -4 -20 -2 -20 5 0 12 50 59 63 60 4 0
7 -38 7 -85z m140 64 c7 -11 9 -31 6 -44 -3 -13 -2 -27 4 -30 29 -18 -7 -75
-48 -75 -44 0 -83 56 -52 75 5 3 7 19 3 35 -7 38 11 60 48 60 18 0 32 -7 39
-21z m-950 -80 c0 -68 -3 -90 -12 -87 -8 3 -14 27 -16 62 -3 51 -5 56 -23 51
-10 -4 -19 -3 -19 1 0 10 53 63 63 64 4 0 7 -41 7 -91z m145 69 c14 -21 14
-23 -2 -27 -9 -2 -19 2 -21 8 -3 10 -42 16 -42 7 0 -2 -3 -11 -6 -19 -4 -11 1
-13 21 -9 54 10 86 -57 45 -98 -26 -26 -46 -25 -75 5 -18 17 -25 35 -25 63 0
76 69 121 105 70z m267 -63 c2 -72 1 -85 -12 -83 -11 2 -16 19 -18 56 -3 47
-5 52 -23 47 -11 -4 -19 -2 -19 5 0 11 49 59 62 60 3 0 8 -38 10 -85z m158 81
c0 -3 -11 -26 -25 -51 -13 -26 -27 -62 -31 -81 -3 -19 -12 -34 -20 -34 -22 0
-16 36 21 123 6 14 2 17 -29 17 -34 0 -44 8 -29 23 7 8 113 10 113 3z m-980
-101 c0 -69 -3 -85 -15 -85 -12 0 -15 13 -15 60 0 58 -1 60 -20 50 -28 -15
-27 6 3 35 40 41 47 32 47 -60z m150 70 c0 -10 -11 -15 -35 -15 -23 0 -35 -5
-35 -14 0 -9 7 -12 19 -9 23 6 61 -29 61 -55 0 -30 -29 -62 -57 -62 -26 0 -63
25 -63 42 0 14 22 9 42 -9 17 -15 20 -15 34 -1 20 20 10 58 -16 58 -10 0 -21
-4 -25 -10 -9 -15 -33 0 -29 18 14 75 11 72 59 72 33 0 45 -4 45 -15z m-960
-91 c0 -68 -3 -84 -15 -84 -12 0 -15 14 -15 67 0 52 -3 64 -12 55 -15 -15 -28
-16 -28 -2 0 15 53 59 62 53 5 -2 8 -42 8 -89z m136 70 c12 -18 14 -28 6 -36
-8 -8 -6 -17 4 -34 12 -17 13 -27 4 -43 -11 -21 -40 -41 -59 -41 -14 0 -51 37
-51 50 0 16 22 12 35 -7 17 -23 47 -10 43 19 -2 15 -9 22 -21 22 -9 -1 -17 4
-17 12 0 8 6 14 14 14 15 0 28 24 19 34 -12 12 -42 6 -45 -9 -2 -10 -7 -12
-18 -5 -12 7 -12 12 4 29 26 29 62 27 82 -5z m-536 -69 c0 -69 -3 -85 -15 -85
-12 0 -15 13 -15 56 0 51 -2 55 -20 49 -12 -4 -20 -2 -20 5 0 12 50 59 63 60
4 0 7 -38 7 -85z m142 68 c26 -23 23 -38 -18 -83 l-36 -40 36 0 c25 0 36 -4
36 -15 0 -12 -13 -15 -60 -15 -36 0 -60 4 -60 11 0 6 20 31 45 57 25 25 45 49
45 53 0 3 -7 13 -16 20 -14 11 -19 10 -36 -10 -24 -31 -45 -15 -22 17 18 26
60 29 86 5z m668 -68 c0 -69 -3 -85 -15 -85 -12 0 -15 14 -15 62 0 48 -3 59
-12 50 -7 -7 -16 -12 -20 -12 -15 0 -8 23 15 45 40 41 47 32 47 -60z m130 36
c0 -34 4 -51 15 -55 20 -7 19 -26 0 -26 -9 0 -15 -7 -13 -16 4 -25 -19 -28
-25 -4 -4 15 -13 20 -41 20 -20 0 -36 3 -36 7 0 16 76 123 88 123 8 0 12 -16
12 -49z m-1366 13 c3 -9 6 -47 6 -85 0 -55 -3 -69 -15 -69 -12 0 -15 13 -15
60 0 58 -1 60 -20 50 -28 -15 -27 6 3 35 27 28 33 29 41 9z m126 -69 c0 -69
-3 -85 -15 -85 -12 0 -15 13 -15 60 0 58 -1 60 -20 50 -15 -8 -20 -8 -20 2 0
12 48 57 63 58 4 0 7 -38 7 -85z m-530 -10 c0 -69 -3 -85 -15 -85 -12 0 -15
13 -15 60 0 58 -1 60 -20 50 -15 -8 -20 -8 -20 2 0 12 48 57 63 58 4 0 7 -38
7 -85z m139 71 c19 -23 25 -83 11 -116 -21 -50 -77 -52 -98 -4 -17 35 -15 86
4 112 17 25 65 30 83 8z m-456 -14 c26 -28 31 -74 13 -115 -13 -33 -19 -37
-50 -37 -25 0 -38 6 -46 19 -14 26 7 39 24 15 16 -21 41 -13 49 15 4 17 2 18
-13 9 -26 -17 -70 14 -70 49 0 54 59 83 93 45z m-393 -12 c6 -11 8 -30 4 -44
-3 -13 -1 -27 5 -30 30 -19 -6 -76 -47 -76 -44 0 -83 56 -52 75 5 3 7 19 3 35
-3 18 0 36 7 45 18 22 67 19 80 -5z m-2440 -10 c29 -29 25 -48 -20 -92 l-41
-38 41 0 c47 0 53 -15 9 -24 -45 -9 -77 -7 -84 3 -3 6 15 33 40 61 25 29 44
57 42 63 -6 19 -39 21 -49 3 -12 -22 -39 -21 -31 2 15 43 61 54 93 22z m820
-35 c0 -42 3 -55 15 -55 8 0 15 -4 15 -10 0 -5 -4 -10 -10 -10 -5 0 -10 -9
-10 -20 0 -11 -7 -20 -15 -20 -9 0 -15 9 -15 21 0 19 -4 21 -35 16 -19 -3 -37
-2 -40 3 -7 11 71 130 85 130 6 0 10 -25 10 -55z m400 40 c0 -10 -10 -15 -29
-15 -16 0 -31 -6 -35 -15 -4 -10 1 -15 16 -15 31 0 58 -29 58 -61 0 -57 -90
-79 -109 -26 -11 28 7 37 25 12 19 -25 48 -15 52 19 4 28 3 29 -37 22 -45 -7
-46 -4 -35 52 5 27 11 31 43 35 20 2 39 4 44 5 4 1 7 -5 7 -13z m402 -7 c15
-15 18 -23 9 -26 -7 -2 -18 1 -24 7 -17 17 -35 13 -47 -9 -10 -19 -9 -20 15
-14 52 13 83 -46 49 -94 -19 -28 -55 -28 -80 -1 -29 32 -26 115 5 140 30 25
46 24 73 -3z m-1208 -7 c13 -15 15 -24 8 -37 -7 -13 -6 -24 5 -41 35 -53 -49
-101 -93 -52 -16 17 -16 22 -4 29 10 6 16 5 19 -3 11 -34 51 -27 51 9 0 17 -6
24 -20 24 -25 0 -26 12 0 28 11 7 17 18 14 27 -8 19 -33 19 -40 0 -4 -8 -12
-15 -20 -15 -17 0 -17 5 -4 31 14 25 61 25 84 0z m1636 17 c0 -2 -14 -30 -30
-62 -17 -32 -30 -69 -30 -82 0 -16 -6 -24 -16 -24 -13 0 -15 7 -11 35 3 20 13
50 21 67 9 17 16 33 16 35 0 1 -16 3 -35 3 -24 0 -35 5 -35 15 0 12 13 15 60
15 33 0 60 -1 60 -2z m-2480 -93 c0 -69 -3 -85 -15 -85 -12 0 -15 13 -15 60 0
58 -1 60 -20 50 -28 -15 -27 7 2 37 39 42 48 31 48 -62z"/>
<path d="M8046 4984 c-4 -14 -4 -41 0 -60 5 -28 10 -35 28 -32 16 2 22 11 24
37 2 19 1 44 -2 57 -9 33 -42 32 -50 -2z"/>
<path d="M7640 4985 c-17 -20 -8 -50 15 -50 14 0 21 8 23 26 4 31 -20 45 -38
24z"/>
<path d="M7242 4963 c2 -10 10 -18 18 -18 8 0 16 8 18 18 2 12 -3 17 -18 17
-15 0 -20 -5 -18 -17z"/>
<path d="M7240 4905 c-10 -12 -10 -18 0 -30 16 -19 39 -19 46 0 6 15 -11 45
-26 45 -4 0 -13 -7 -20 -15z"/>
<path d="M6432 4883 c2 -20 8 -28 23 -28 31 0 28 49 -3 53 -20 3 -23 0 -20
-25z"/>
<path d="M5622 4880 c-10 -17 -10 -20 3 -20 8 0 15 9 15 20 0 11 -1 20 -3 20
-1 0 -8 -9 -15 -20z"/>
<path d="M3982 4898 c-13 -13 -16 -66 -6 -92 3 -9 14 -16 24 -16 29 0 41 61
20 101 -12 22 -21 24 -38 7z"/>
<path d="M3524 4875 c-9 -23 4 -47 23 -43 11 2 19 14 21 31 3 22 -1 27 -18 27
-11 0 -23 -7 -26 -15z"/>
<path d="M3132 4863 c2 -10 10 -18 18 -18 8 0 16 8 18 18 2 12 -3 17 -18 17
-15 0 -20 -5 -18 -17z"/>
<path d="M3130 4805 c-10 -12 -10 -18 0 -30 16 -19 39 -19 46 0 6 15 -11 45
-26 45 -4 0 -13 -7 -20 -15z"/>
<path d="M1520 4810 c-9 -16 -8 -20 5 -20 8 0 15 9 15 20 0 11 -2 20 -5 20 -2
0 -9 -9 -15 -20z"/>
<path d="M2310 4780 c0 -27 3 -31 23 -28 16 2 22 10 22 28 0 18 -6 26 -22 28
-20 3 -23 -1 -23 -28z"/>
<path d="M48 4393 l-48 -4 0 -95 0 -94 50 0 50 0 0 100 c0 55 -1 99 -2 98 -2
-1 -24 -3 -50 -5z"/>
<path d="M8630 4344 c-2065 -52 -5044 -108 -6870 -129 -745 -8 -1446 -18
-1557 -21 l-203 -6 0 -257 0 -256 57 0 58 0 3 -100 3 -100 157 2 c86 2 747 10
1467 18 721 8 1438 17 1595 20 157 3 1016 19 1910 36 894 16 2163 43 2820 59
657 17 1241 30 1298 30 l102 0 0 103 0 104 293 7 c160 3 381 9 490 13 l197 6
0 -101 0 -102 25 0 25 0 0 360 0 360 -87 -1 c-49 -1 -851 -21 -1783 -45z m172
-31 c27 -24 22 -48 -19 -88 l-36 -35 36 0 c26 0 37 -4 37 -15 0 -12 -13 -15
-60 -15 -33 0 -60 2 -60 5 0 2 20 27 45 55 25 28 45 57 45 65 0 20 -46 20 -54
0 -8 -21 -26 -19 -26 3 0 41 57 57 92 25z m126 5 c21 -21 13 -61 -20 -95 l-32
-33 37 0 c26 0 37 -4 37 -15 0 -12 -13 -15 -60 -15 -73 0 -76 10 -20 65 38 38
50 68 31 79 -13 9 -39 -3 -43 -20 -2 -9 -8 -11 -18 -4 -12 7 -12 12 4 29 21
23 65 28 84 9z m290 0 c23 -23 13 -59 -25 -94 l-37 -34 37 0 c26 0 37 -4 37
-15 0 -12 -13 -15 -55 -15 -69 0 -72 17 -15 69 22 20 40 44 40 54 0 25 -30 34
-45 14 -12 -16 -35 -23 -35 -11 0 3 5 14 10 25 12 22 68 27 88 7z m122 -3 c7
-8 10 -26 8 -40 -3 -14 -1 -28 3 -31 15 -9 10 -46 -8 -66 -30 -34 -93 -18 -93
24 0 22 16 23 28 2 12 -22 47 -14 47 11 0 13 -8 21 -22 23 -24 4 -21 32 3 32
8 0 14 9 14 20 0 23 -28 27 -36 5 -7 -18 -34 -20 -34 -2 0 35 66 51 90 22z
m-1318 -39 c12 -17 -1 -48 -35 -83 l-31 -33 37 0 c26 0 37 -4 37 -15 0 -12
-13 -15 -60 -15 -33 0 -60 4 -60 10 0 5 20 32 45 60 27 30 42 56 39 65 -8 19
-40 19 -48 0 -6 -16 -36 -21 -36 -7 0 11 30 38 50 44 17 6 51 -9 62 -26z m108
14 c30 -30 29 -123 -2 -144 -30 -21 -44 -20 -68 4 -15 15 -20 33 -20 70 0 52
23 90 55 90 8 0 24 -9 35 -20z m310 0 c29 -29 25 -45 -20 -89 l-41 -39 41 5
c32 5 40 2 40 -10 0 -11 -14 -16 -56 -19 -31 -1 -58 0 -60 4 -3 4 16 30 41 58
25 29 44 57 42 63 -6 20 -38 20 -52 0 -10 -14 -17 -15 -25 -6 -9 8 -7 16 9 32
26 26 55 27 81 1z m110 -19 c0 -21 3 -59 6 -85 6 -38 4 -46 -10 -46 -10 0 -16
8 -16 24 0 13 -3 38 -6 55 -5 25 -10 30 -25 26 -28 -9 -23 12 9 40 37 33 42
31 42 -14z m-970 -66 c0 -69 -3 -85 -15 -85 -12 0 -15 13 -15 56 0 51 -2 55
-20 49 -12 -4 -20 -2 -20 5 0 12 50 59 63 60 4 0 7 -38 7 -85z m144 63 c9 -12
16 -41 16 -63 0 -22 -7 -51 -16 -63 -25 -36 -94 -25 -94 15 0 18 21 16 35 -4
11 -15 15 -15 29 -4 23 19 20 34 -5 28 -23 -6 -69 31 -69 55 0 28 31 58 60 58
18 0 34 -8 44 -22z m-540 -49 c9 -92 8 -109 -9 -109 -11 0 -15 11 -15 43 0 44
-11 70 -26 65 -17 -6 -11 17 10 39 11 13 24 23 27 23 3 0 9 -28 13 -61z m140
39 c11 -15 12 -26 5 -39 -6 -11 -6 -20 1 -24 14 -9 13 -58 -2 -73 -7 -7 -26
-12 -43 -12 -17 0 -36 5 -43 12 -15 15 -16 64 -2 73 8 5 7 11 -1 21 -9 11 -9
21 -1 39 15 33 64 35 86 3z m-950 -4 c3 -9 6 -46 6 -84 0 -51 -4 -69 -15 -74
-12 -4 -15 6 -15 61 0 52 -3 64 -12 55 -32 -32 -37 -3 -5 32 27 29 33 31 41
10z m140 0 c20 -20 20 -34 1 -34 -8 0 -15 5 -15 11 0 14 -42 7 -48 -8 -2 -9 7
-13 25 -13 38 0 53 -16 53 -57 0 -57 -62 -79 -97 -34 -19 24 -16 111 4 133 20
22 56 23 77 2z m276 -69 c0 -69 -3 -85 -15 -85 -12 0 -15 13 -15 60 0 58 -1
60 -20 50 -28 -15 -27 6 3 35 40 41 47 32 47 -60z m150 75 c0 -6 -8 -22 -17
-36 -9 -14 -22 -47 -28 -72 -8 -29 -18 -48 -28 -50 -14 -3 -16 2 -10 30 3 18
14 50 25 71 l18 37 -35 0 c-24 0 -35 5 -35 15 0 12 13 15 55 15 31 0 55 -4 55
-10z m-980 -64 c0 -29 3 -68 6 -85 5 -24 3 -31 -9 -31 -12 0 -18 15 -23 60 -5
47 -9 58 -19 50 -9 -8 -15 -8 -20 -1 -6 10 41 60 58 61 4 0 7 -24 7 -54z m150
39 c0 -10 -10 -15 -29 -15 -16 0 -31 -6 -34 -14 -4 -10 0 -12 14 -9 46 12 77
-60 42 -99 -28 -31 -93 -18 -93 19 0 7 7 13 15 13 8 0 15 -4 15 -10 0 -5 12
-10 26 -10 22 0 25 4 22 28 -3 25 -6 27 -42 25 -38 -3 -38 -2 -32 28 3 18 6
38 6 45 0 10 13 14 45 14 33 0 45 -4 45 -15z m-960 -80 c0 -69 -3 -85 -15 -85
-12 0 -15 13 -15 56 0 51 -2 55 -20 49 -11 -3 -20 -3 -20 1 0 11 52 64 62 64
4 0 8 -38 8 -85z m135 69 c9 -9 15 -26 14 -38 -1 -11 1 -34 6 -49 5 -20 3 -33
-9 -46 -29 -31 -55 -32 -84 -4 -30 30 -13 46 18 18 23 -21 50 -13 50 14 0 14
-9 23 -25 27 -30 7 -32 20 -5 27 26 7 26 37 1 37 -11 0 -21 -5 -23 -11 -2 -6
-12 -10 -21 -8 -16 4 -16 6 -2 27 19 26 57 29 80 6z m-525 -79 c0 -69 -3 -85
-15 -85 -12 0 -15 13 -15 60 0 58 -1 60 -20 50 -28 -15 -27 6 3 35 40 41 47
32 47 -60z m138 73 c22 -22 13 -56 -25 -93 l-36 -35 36 0 c26 0 37 -4 37 -15
0 -12 -13 -15 -55 -15 -67 0 -70 11 -15 65 26 25 40 47 38 60 -4 28 -38 32
-45 6 -6 -25 -21 -27 -29 -6 -14 36 64 63 94 33z m662 -50 c0 -35 3 -73 6 -85
5 -17 2 -23 -9 -23 -17 0 -27 29 -27 78 0 29 -3 32 -20 27 -12 -4 -20 -2 -20
5 0 12 50 59 63 60 4 0 7 -28 7 -62z m140 12 c0 -27 5 -50 10 -50 6 0 10 -7
10 -15 0 -8 -4 -15 -10 -15 -5 0 -10 -9 -10 -20 0 -11 -7 -20 -15 -20 -8 0
-15 9 -15 20 0 16 -7 20 -35 20 -44 0 -44 11 0 78 46 68 65 68 65 2z m-1646 9
c21 -17 26 -29 26 -68 0 -78 -46 -116 -92 -74 -26 24 -25 116 2 143 25 25 31
25 64 -1z m276 -64 c0 -69 -3 -85 -15 -85 -12 0 -15 14 -15 62 0 48 -3 59 -12
50 -15 -15 -28 -15 -28 0 0 12 49 57 63 58 4 0 7 -38 7 -85z m128 -3 c2 -68 0
-82 -13 -82 -12 0 -15 13 -15 60 0 60 -6 70 -28 48 -9 -9 -12 -9 -12 2 0 18
41 61 54 57 6 -2 12 -39 14 -85z m-534 32 c11 -81 8 -124 -9 -124 -11 0 -15
13 -15 53 0 59 -6 72 -27 56 -10 -9 -13 -8 -13 2 0 13 39 59 50 59 4 0 10 -21
14 -46z m-310 14 c21 -29 20 -97 0 -126 -19 -27 -71 -27 -88 0 -15 25 1 34 24
13 16 -14 22 -15 35 -5 22 19 18 31 -9 24 -18 -4 -28 1 -45 22 -25 32 -26 42
-5 72 10 14 26 22 44 22 18 0 34 -8 44 -22z m-404 -3 c7 -8 10 -26 8 -40 -3
-14 -1 -28 3 -31 13 -8 11 -58 -3 -72 -7 -7 -26 -12 -43 -12 -17 0 -36 5 -43
12 -15 15 -16 64 -2 73 8 5 7 11 -1 21 -9 11 -9 21 -1 39 13 29 61 35 82 10z
m-2438 -12 c28 -25 22 -53 -19 -96 l-38 -39 38 7 c30 6 37 4 37 -9 0 -12 -10
-16 -39 -16 -22 0 -46 -3 -55 -6 -30 -11 -17 25 24 70 22 24 40 51 40 60 0 20
-38 22 -46 1 -8 -19 -34 -20 -34 -1 0 17 37 46 59 46 8 0 23 -7 33 -17z m828
-33 c0 -27 5 -50 10 -50 6 0 10 -7 10 -15 0 -8 -4 -15 -10 -15 -5 0 -10 -9
-10 -20 0 -11 -7 -20 -15 -20 -8 0 -15 9 -15 20 0 16 -7 20 -35 20 -19 0 -35
5 -35 10 0 19 73 120 86 120 10 0 14 -15 14 -50z m398 33 c2 -9 -8 -13 -32
-13 -25 0 -36 -4 -36 -15 0 -9 9 -15 25 -15 35 0 62 -42 47 -76 -18 -37 -55
-51 -87 -30 -14 9 -25 23 -25 31 0 18 27 20 32 3 6 -16 41 -19 50 -5 11 17 10
24 -8 41 -11 12 -20 13 -34 6 -10 -6 -23 -10 -29 -10 -15 0 -1 73 18 88 19 16
73 12 79 -5z m394 0 c22 -20 23 -33 3 -33 -8 0 -15 5 -15 11 0 17 -44 6 -48
-12 -2 -12 3 -15 20 -12 51 9 81 -48 47 -90 -43 -55 -99 -19 -99 63 0 76 47
114 92 73z m-1202 -8 c7 -8 10 -25 6 -39 -3 -14 -2 -28 4 -31 5 -3 10 -16 10
-27 0 -53 -74 -79 -104 -36 -12 17 -13 24 -3 30 7 4 17 1 24 -8 16 -21 48 -14
48 11 0 13 -8 21 -22 23 -28 4 -30 22 -3 29 21 6 27 28 9 38 -5 4 -18 0 -28
-9 -21 -19 -31 -20 -31 -3 0 35 66 51 90 22z m1630 10 c0 -2 -11 -28 -24 -57
-14 -29 -28 -66 -31 -81 -8 -37 -31 -29 -27 9 2 16 11 46 21 67 l18 37 -33 0
c-24 0 -34 5 -34 15 0 12 13 15 55 15 30 0 55 -2 55 -5z m-2480 -90 c0 -69 -3
-85 -15 -85 -12 0 -15 13 -15 60 0 58 -1 60 -20 50 -15 -8 -20 -8 -20 2 0 12
48 57 63 58 4 0 7 -38 7 -85z"/>
<path d="M8074 4267 c-3 -8 -4 -34 -2 -58 2 -36 7 -44 23 -44 18 0 20 7 20 55
0 44 -3 55 -18 58 -9 2 -20 -3 -23 -11z"/>
<path d="M7660 4249 c-13 -22 1 -49 26 -49 18 0 28 38 14 55 -17 20 -27 19
-40 -6z"/>
<path d="M7273 4253 c-18 -6 -16 -30 2 -37 9 -3 18 1 22 10 7 18 -7 33 -24 27z"/>
<path d="M7264 4176 c-9 -24 4 -48 23 -44 12 2 18 12 18 28 0 29 -32 41 -41
16z"/>
<path d="M6461 4180 c-7 -4 -11 -18 -9 -31 5 -35 42 -33 46 2 3 28 -16 43 -37
29z"/>
<path d="M5652 4160 c-16 -26 -15 -30 3 -30 9 0 15 9 15 25 0 30 -2 31 -18 5z"/>
<path d="M4004 4167 c-3 -8 -4 -34 -2 -58 2 -36 7 -44 23 -44 18 0 20 7 20 55
0 44 -3 55 -18 58 -9 2 -20 -3 -23 -11z"/>
<path d="M3549 4149 c-9 -17 -8 -25 4 -37 19 -18 47 -9 47 16 0 18 -18 42 -32
42 -4 0 -12 -10 -19 -21z"/>
<path d="M3163 4153 c-18 -6 -16 -30 2 -37 9 -3 18 1 22 10 7 18 -7 33 -24 27z"/>
<path d="M3154 4076 c-9 -24 4 -48 23 -44 12 2 18 12 18 28 0 29 -32 41 -41
16z"/>
<path d="M1546 4085 c-16 -24 -16 -25 4 -25 15 0 20 7 20 25 0 14 -2 25 -4 25
-2 0 -11 -11 -20 -25z"/>
<path d="M2334 4065 c-9 -23 3 -45 26 -45 16 0 20 7 20 30 0 23 -4 30 -20 30
-11 0 -23 -7 -26 -15z"/>
<path d="M9843 3847 l-363 -9 0 -97 0 -96 442 12 c244 6 460 12 481 12 l37 1
0 95 0 95 -117 -2 c-65 -1 -281 -6 -480 -11z"/>
<path d="M7 3663 c-4 -3 -7 -48 -7 -100 l0 -93 55 0 55 0 0 100 0 100 -48 0
c-27 0 -52 -3 -55 -7z"/>
<path d="M8595 3614 c-1570 -40 -4001 -92 -4330 -93 -77 0 -365 -5 -640 -10
-275 -6 -1134 -17 -1910 -26 -776 -8 -1479 -18 -1562 -21 l-153 -6 0 -254 0
-254 60 0 60 0 0 -100 0 -100 243 0 c985 1 6685 96 7462 125 72 2 465 12 875
21 410 8 755 18 768 20 21 4 22 9 22 103 l0 98 268 7 c147 3 367 9 490 13
l222 6 0 -101 c0 -84 3 -102 15 -102 13 0 15 47 15 360 l0 360 -102 -1 c-57
-1 -868 -21 -1803 -45z m643 -32 c20 -26 14 -43 -28 -84 l-41 -38 41 0 c66 0
45 -24 -23 -28 -70 -4 -72 5 -12 69 29 31 43 54 39 63 -8 20 -40 21 -48 1 -6
-16 -36 -21 -36 -6 0 5 12 19 27 30 28 23 59 20 81 -7z m102 18 c18 0 31 -39
20 -59 -7 -13 -7 -22 0 -26 15 -10 12 -46 -7 -67 -20 -22 -51 -23 -75 -1 -22
20 -24 43 -3 43 8 0 15 -7 15 -15 0 -9 9 -15 25 -15 20 0 25 5 25 25 0 18 -5
25 -20 25 -11 0 -20 6 -20 14 0 7 9 16 20 19 24 6 26 25 4 34 -10 4 -22 -1
-29 -10 -13 -19 -35 -23 -35 -7 0 18 41 52 57 46 8 -3 19 -6 23 -6z m-522 -12
c22 -22 13 -59 -22 -94 l-34 -34 34 0 c24 0 34 -5 34 -15 0 -12 -13 -15 -55
-15 -67 0 -70 11 -15 65 40 39 51 70 28 78 -19 6 -38 -3 -38 -19 0 -8 -7 -14
-15 -14 -20 0 -19 24 1 44 18 19 65 21 82 4z m132 -7 c15 -30 13 -38 -26 -81
l-36 -40 36 0 c25 0 36 -4 36 -15 0 -12 -13 -15 -60 -15 -35 0 -60 4 -60 10 0
6 21 33 46 60 29 31 44 55 40 65 -7 19 -35 19 -42 0 -7 -18 -34 -20 -34 -2 0
39 81 53 100 18z m-932 -17 c31 -22 27 -48 -14 -94 l-36 -40 36 0 c25 0 36 -4
36 -15 0 -12 -13 -15 -55 -15 -69 0 -72 17 -14 76 27 28 40 48 36 58 -8 20
-36 21 -43 1 -8 -19 -34 -20 -34 -1 0 16 37 46 55 46 6 0 21 -7 33 -16z m128
-5 c13 -15 19 -36 19 -69 0 -105 -91 -123 -111 -22 -17 84 44 144 92 91z m306
4 c26 -23 22 -47 -13 -88 l-31 -35 31 0 c21 0 31 -5 31 -15 0 -12 -13 -15 -55
-15 -67 0 -70 11 -15 65 47 46 53 75 15 75 -16 0 -25 -6 -25 -15 0 -8 -7 -15
-15 -15 -20 0 -19 19 2 42 20 22 51 23 75 1z m118 -68 c0 -69 -3 -85 -15 -85
-12 0 -15 13 -15 60 0 58 -1 60 -20 50 -28 -15 -27 6 3 35 40 41 47 32 47 -60z
m-972 -23 c2 -68 0 -82 -13 -82 -12 0 -15 13 -15 60 0 58 -1 60 -20 50 -15 -8
-20 -8 -20 1 0 16 42 57 55 55 6 -2 11 -39 13 -84z m134 71 c24 -22 25 -109 1
-135 -30 -33 -93 -15 -93 26 0 13 24 5 35 -11 11 -15 15 -15 29 -4 24 20 19
31 -12 31 -36 0 -52 17 -52 55 0 17 5 36 12 43 17 17 58 15 80 -5z m-532 -78
c0 -69 -3 -85 -15 -85 -12 0 -15 14 -15 62 0 48 -3 59 -12 50 -7 -7 -16 -12
-20 -12 -15 0 -8 23 15 45 40 41 47 32 47 -60z m142 60 c8 -19 8 -29 0 -37 -8
-8 -7 -17 5 -34 35 -54 -48 -102 -92 -53 -16 16 -17 25 -8 48 6 16 7 35 2 43
-13 24 17 58 52 58 22 0 32 -7 41 -25z m-952 -70 c0 -69 -3 -85 -15 -85 -12 0
-15 14 -15 62 0 48 -3 59 -12 50 -15 -15 -28 -16 -28 -2 0 12 50 59 63 60 4 0
7 -38 7 -85z m138 73 c17 -17 15 -38 -3 -38 -8 0 -15 5 -15 11 0 16 -44 6 -48
-11 -2 -11 6 -15 30 -15 24 0 36 -6 47 -26 13 -24 13 -29 -2 -53 -22 -34 -69
-36 -91 -4 -23 33 -21 103 4 128 22 22 60 26 78 8z m272 -73 c0 -69 -3 -85
-15 -85 -12 0 -15 13 -15 60 0 58 -1 60 -20 50 -30 -16 -25 6 8 35 15 13 30
25 35 25 4 0 7 -38 7 -85z m160 83 c0 -2 -14 -30 -30 -62 -17 -32 -30 -69 -30
-82 0 -16 -6 -24 -16 -24 -14 0 -15 7 -10 43 4 23 14 52 22 64 20 31 18 33
-21 33 -24 0 -35 5 -35 15 0 12 13 15 60 15 33 0 60 -1 60 -2z m-980 -103 c0
-69 -3 -85 -15 -85 -12 0 -15 13 -15 60 0 58 -1 60 -20 50 -28 -15 -27 7 2 37
39 42 48 31 48 -62z m148 73 c-3 -7 -19 -14 -36 -16 -40 -4 -41 -18 -3 -25 34
-7 55 -38 46 -67 -16 -50 -68 -66 -100 -30 -15 16 -16 23 -6 33 10 9 14 8 22
-5 12 -21 45 -24 52 -5 2 6 2 20 -1 31 -4 15 -11 17 -43 12 l-39 -6 6 32 c10
57 11 58 60 58 32 0 44 -4 42 -12z m-964 -50 c10 -86 8 -118 -8 -118 -11 0
-16 15 -18 53 -2 42 -6 52 -20 51 -10 -1 -18 3 -18 9 0 10 40 54 51 56 3 1 9
-23 13 -51z m136 37 c7 -8 10 -26 8 -40 -3 -14 -1 -28 3 -31 13 -8 11 -58 -3
-72 -27 -27 -98 -9 -98 25 0 18 20 16 35 -4 16 -21 45 -10 45 18 0 12 -8 23
-20 26 -24 6 -26 19 -5 27 17 6 20 32 6 41 -5 3 -16 -2 -24 -10 -15 -15 -37
-20 -37 -9 0 3 5 14 10 25 13 23 62 26 80 4z m-530 -80 c0 -69 -3 -85 -15 -85
-12 0 -15 13 -15 60 0 58 -1 60 -20 50 -28 -15 -27 6 3 35 40 41 47 32 47 -60z
m138 73 c24 -24 14 -64 -23 -97 l-36 -31 41 0 c66 0 45 -24 -23 -28 -70 -4
-73 8 -17 63 26 25 40 47 38 60 -4 27 -38 32 -45 7 -5 -20 -33 -21 -33 -2 0
33 73 53 98 28z m672 -73 c0 -69 -3 -85 -15 -85 -12 0 -15 13 -15 60 0 58 -1
60 -20 50 -28 -15 -27 7 2 37 39 42 48 31 48 -62z m130 35 c0 -27 5 -50 10
-50 6 0 10 -7 10 -15 0 -8 -4 -15 -10 -15 -5 0 -10 -9 -10 -20 0 -11 -7 -20
-15 -20 -8 0 -15 9 -15 20 0 16 -7 20 -35 20 -19 0 -35 5 -35 10 0 19 73 120
86 120 10 0 14 -15 14 -50z m-1240 -56 c0 -68 -3 -84 -15 -84 -12 0 -15 13
-15 60 0 58 -1 60 -20 50 -15 -8 -20 -8 -20 1 0 16 53 69 62 63 5 -3 8 -43 8
-90z m-400 66 c29 -29 31 -111 3 -142 -40 -45 -93 -4 -93 72 0 52 23 90 55 90
8 0 24 -9 35 -20z m270 -34 c0 -29 3 -68 6 -85 5 -24 3 -31 -8 -31 -16 0 -28
40 -28 92 0 25 -2 28 -14 19 -10 -8 -16 -9 -21 -2 -6 10 41 60 58 61 4 0 7
-24 7 -54z m-400 -41 c0 -69 -3 -85 -15 -85 -12 0 -15 13 -15 60 0 58 -1 60
-20 50 -28 -15 -27 7 2 37 39 42 48 31 48 -62z m-318 58 c24 -22 25 -109 1
-135 -30 -33 -93 -15 -93 26 0 12 23 5 34 -10 14 -18 46 -9 46 13 0 10 -6 13
-16 9 -29 -11 -64 21 -64 57 0 18 5 38 12 45 17 17 58 15 80 -5z m-390 -18 c8
-19 8 -29 0 -37 -8 -8 -7 -17 5 -34 35 -54 -48 -102 -92 -53 -16 16 -17 25 -8
48 7 18 7 34 1 45 -14 24 17 56 54 56 21 0 32 -7 40 -25z m-2442 -5 c27 -27
26 -34 -16 -80 l-36 -40 36 0 c25 0 36 -4 36 -15 0 -12 -13 -15 -60 -15 -39 0
-60 4 -60 12 0 6 18 28 40 48 44 41 54 80 20 80 -11 0 -23 -7 -26 -15 -7 -17
-34 -21 -34 -5 0 17 39 50 60 50 11 0 29 -9 40 -20z m416 -39 c0 -17 3 -34 7
-37 24 -25 -10 -84 -48 -84 -30 0 -63 36 -47 52 8 8 13 7 18 -5 3 -9 17 -17
30 -17 19 0 24 5 24 25 0 18 -5 25 -20 25 -11 0 -20 7 -20 15 0 8 7 15 15 15
8 0 15 9 15 20 0 23 -28 27 -36 5 -4 -8 -13 -15 -21 -15 -23 0 -11 33 17 47
35 17 65 -4 66 -46z m404 9 c0 -27 5 -50 10 -50 6 0 10 -7 10 -15 0 -8 -4 -15
-10 -15 -5 0 -10 -9 -10 -20 0 -11 -7 -20 -15 -20 -8 0 -15 9 -15 20 0 16 -7
20 -35 20 -19 0 -35 3 -35 7 0 16 76 123 88 123 8 0 12 -17 12 -50z m400 35
c0 -10 -11 -15 -35 -15 -24 0 -35 -5 -35 -15 0 -9 9 -15 22 -15 28 0 58 -28
58 -55 0 -27 -35 -65 -60 -65 -21 0 -60 33 -60 50 0 16 28 12 38 -6 12 -22 46
-14 50 12 4 30 -21 48 -48 34 -29 -16 -34 -9 -26 45 l7 45 45 0 c32 0 44 -4
44 -15z m391 5 c23 -13 26 -40 4 -40 -8 0 -15 5 -15 10 0 6 -9 10 -20 10 -11
0 -20 -2 -20 -4 0 -2 -2 -11 -5 -19 -5 -10 1 -13 23 -9 22 3 33 -2 46 -19 21
-31 20 -55 -4 -79 -26 -26 -46 -25 -75 5 -32 31 -34 91 -4 129 22 28 39 32 70
16z m419 -38 c-13 -17 -28 -52 -35 -78 -7 -27 -17 -50 -23 -52 -20 -6 -13 52
11 100 l23 46 -38 -6 c-30 -4 -38 -1 -38 11 0 12 13 17 53 19 28 2 56 0 61 -4
4 -3 -2 -20 -14 -36z m-2466 -33 c9 -92 8 -109 -9 -109 -11 0 -15 11 -15 38 0
59 -9 80 -31 75 -10 -3 -19 -2 -19 3 0 9 51 53 61 54 3 0 9 -28 13 -61z"/>
<path d="M8084 3525 c-10 -42 4 -95 26 -95 22 0 35 45 25 90 -8 38 -42 42 -51
5z"/>
<path d="M7674 3526 c-10 -26 0 -51 21 -51 16 0 20 7 20 30 0 33 -30 49 -41
21z"/>
<path d="M7287 3524 c-14 -15 -6 -34 14 -34 14 0 19 5 17 17 -3 18 -20 27 -31
17z"/>
<path d="M7277 3453 c-13 -12 -7 -41 10 -47 21 -9 46 16 37 37 -6 17 -35 23
-47 10z"/>
<path d="M6472 3448 c-16 -16 -15 -33 4 -48 22 -19 54 12 38 37 -14 22 -27 26
-42 11z"/>
<path d="M5660 3420 c-9 -16 -8 -20 5 -20 8 0 15 9 15 20 0 11 -2 20 -5 20 -2
0 -9 -9 -15 -20z"/>
<path d="M4014 3437 c-3 -8 -4 -34 -2 -58 3 -37 7 -45 26 -47 22 -3 23 -1 20
55 -2 46 -7 59 -21 61 -9 2 -20 -3 -23 -11z"/>
<path d="M3571 3430 c-7 -4 -11 -18 -9 -31 5 -35 42 -33 46 2 3 28 -16 43 -37
29z"/>
<path d="M3172 3417 c-14 -16 -6 -27 20 -27 13 0 18 6 16 17 -4 22 -22 27 -36
10z"/>
<path d="M3167 3353 c-13 -12 -7 -41 10 -47 9 -4 23 -1 30 7 8 7 11 21 7 30
-6 17 -35 23 -47 10z"/>
<path d="M1562 3360 c-10 -17 -10 -20 3 -20 8 0 15 9 15 20 0 11 -1 20 -3 20
-1 0 -8 -9 -15 -20z"/>
<path d="M2347 3336 c-10 -26 4 -47 27 -44 15 2 21 10 21 28 0 29 -38 41 -48
16z"/>
<path d="M9985 3120 c-115 -4 -272 -8 -347 -9 l-138 -1 0 -96 0 -97 328 7
c180 3 396 9 480 13 l152 6 0 93 0 94 -132 -2 c-73 -1 -227 -5 -343 -8z"/>
<path d="M0 2839 l0 -100 53 3 52 3 3 98 3 97 -56 0 -55 0 0 -101z"/>
<path d="M9815 2915 c-258 -7 -578 -16 -710 -19 -2199 -58 -5387 -118 -7465
-141 -789 -9 -1481 -18 -1537 -21 l-103 -6 0 -254 0 -254 65 0 65 0 -2 -97 -2
-98 -3 93 -4 92 -59 0 -60 0 0 -98 0 -97 148 2 c81 2 757 10 1502 18 1129 13
3980 60 4860 80 1810 41 2887 67 2938 71 l62 6 0 97 0 98 233 6 c127 4 348 10
489 14 l257 6 4 -104 c1 -57 4 59 5 259 l2 362 -107 -1 c-60 -1 -319 -7 -578
-14z m-867 -51 c32 -22 27 -53 -15 -96 l-37 -38 37 0 c26 0 37 -4 37 -15 0
-12 -13 -15 -55 -15 -69 0 -72 15 -15 71 22 22 40 46 40 55 0 22 -31 30 -45
11 -15 -21 -35 -22 -35 -3 0 16 37 46 55 46 6 0 21 -7 33 -16z m290 0 c31 -22
27 -48 -14 -94 l-36 -40 36 0 c25 0 36 -4 36 -15 0 -11 -13 -15 -54 -15 -30 0
-58 4 -61 10 -3 5 15 32 41 60 29 31 44 55 40 65 -7 20 -46 20 -46 0 0 -8 -7
-15 -15 -15 -8 0 -15 6 -15 14 0 16 37 46 55 46 6 0 21 -7 33 -16z m120 0 c15
-10 22 -25 21 -47 -1 -18 2 -42 6 -54 8 -25 -24 -63 -55 -63 -21 0 -60 33 -60
50 0 16 27 12 34 -5 7 -20 42 -19 50 1 8 21 -1 34 -25 34 -25 0 -25 20 1 27
24 6 27 31 5 40 -9 3 -22 -2 -30 -13 -10 -14 -17 -16 -25 -7 -9 8 -7 16 9 32
25 25 39 26 69 5z m-524 -15 c18 -26 12 -44 -27 -86 l-31 -33 37 0 c26 0 37
-4 37 -15 0 -12 -13 -15 -60 -15 -34 0 -60 4 -60 10 0 6 18 30 40 54 22 24 40
50 40 59 0 28 -22 31 -42 7 -14 -17 -22 -20 -30 -12 -9 9 -7 17 7 32 24 27 70
26 89 -1z m-806 -15 c32 -22 27 -53 -15 -96 l-37 -38 37 0 c26 0 37 -4 37 -15
0 -12 -13 -15 -55 -15 -69 0 -72 15 -15 71 44 44 53 79 20 79 -11 0 -23 -7
-26 -15 -8 -19 -34 -20 -34 -1 0 16 37 46 55 46 6 0 21 -7 33 -16z m118 8 c38
-25 45 -105 13 -146 -24 -31 -39 -32 -69 -8 -18 14 -22 29 -23 70 -1 70 38
112 79 84z m322 -4 c21 -21 13 -61 -20 -95 l-32 -33 37 0 c26 0 37 -4 37 -15
0 -12 -13 -15 -60 -15 -34 0 -60 4 -60 10 0 6 18 30 40 54 22 24 40 51 40 60
0 20 -38 22 -46 1 -7 -18 -34 -20 -34 -3 0 37 70 64 98 36z m112 -73 c0 -69
-3 -85 -15 -85 -12 0 -15 13 -15 60 0 58 -1 60 -20 50 -15 -8 -20 -8 -20 2 0
12 48 57 63 58 4 0 7 -38 7 -85z m-970 -20 c0 -69 -3 -85 -15 -85 -12 0 -15
13 -15 60 0 58 -1 60 -20 50 -28 -15 -27 6 3 35 40 41 47 32 47 -60z m141 68
c21 -25 18 -107 -5 -132 -25 -27 -61 -27 -81 1 -19 27 -2 38 23 15 18 -17 35
-12 44 13 4 12 -3 15 -30 15 -30 0 -38 4 -46 27 -15 42 8 78 49 78 18 0 39 -7
46 -17z m-541 -78 c0 -69 -3 -85 -15 -85 -12 0 -15 14 -15 62 0 48 -3 59 -12
50 -15 -15 -28 -16 -28 -2 0 12 50 59 63 60 4 0 7 -38 7 -85z m144 63 c8 -13
8 -23 -2 -38 -7 -11 -8 -20 -2 -20 5 0 12 -11 16 -25 15 -58 -69 -90 -103 -39
-12 20 -14 30 -6 43 6 10 9 29 6 44 -3 15 0 34 7 43 17 20 70 15 84 -8z m-954
-73 c0 -69 -3 -85 -15 -85 -12 0 -15 13 -15 56 0 51 -2 55 -20 49 -12 -4 -20
-2 -20 5 0 12 50 59 63 60 4 0 7 -38 7 -85z m145 63 c19 -28 2 -37 -24 -14
-17 16 -20 16 -35 1 -24 -24 -20 -32 16 -27 51 8 78 -49 41 -90 -18 -21 -66
-24 -81 -5 -28 35 -26 112 4 142 22 22 60 19 79 -7z m265 -17 c0 -21 3 -59 6
-85 5 -37 4 -46 -8 -46 -11 0 -17 16 -22 61 -6 49 -10 58 -21 49 -27 -23 -26
10 2 35 38 33 43 31 43 -14z m160 35 c0 -3 -11 -26 -25 -51 -13 -26 -27 -62
-31 -81 -3 -19 -12 -34 -20 -34 -22 0 -16 36 21 123 6 14 2 17 -24 17 -21 0
-31 5 -31 15 0 12 13 15 55 15 30 0 55 -2 55 -4z m-980 -101 c0 -69 -3 -85
-15 -85 -12 0 -15 13 -15 60 0 58 -1 60 -20 50 -28 -15 -27 6 3 35 40 41 47
32 47 -60z m148 73 c-3 -7 -19 -14 -36 -16 -36 -4 -44 -22 -10 -22 52 0 76
-62 38 -100 -26 -26 -65 -26 -84 2 -20 28 -3 51 17 24 19 -26 52 -17 52 14 0
23 -4 25 -37 23 -33 -2 -38 0 -38 20 0 56 10 67 57 67 31 0 43 -4 41 -12z
m-958 -83 c0 -69 -3 -85 -15 -85 -12 0 -15 14 -15 62 0 48 -3 59 -12 50 -32
-32 -37 -3 -5 32 40 43 47 34 47 -59z m136 64 c14 -15 16 -24 7 -37 -7 -13 -6
-23 5 -39 13 -21 12 -26 -2 -48 -19 -29 -66 -34 -90 -9 -33 32 -8 48 26 17 17
-15 20 -15 35 0 13 13 14 19 3 31 -7 9 -19 16 -26 16 -20 0 -17 9 7 29 18 15
19 18 6 29 -12 10 -18 10 -30 -3 -16 -15 -37 -20 -37 -8 0 3 7 15 17 25 21 24
55 23 79 -3z m404 -34 c0 -42 3 -55 15 -55 19 0 19 0 -1 -38 -18 -36 -34 -42
-34 -12 0 16 -7 20 -35 20 -25 0 -35 5 -35 15 0 19 69 125 81 125 5 0 9 -25 9
-55z m-940 -41 c0 -64 -3 -85 -12 -82 -8 3 -15 29 -18 64 -3 35 -8 54 -13 47
-10 -16 -27 -17 -27 -3 0 12 50 59 63 60 4 0 7 -39 7 -86z m150 67 c15 -30 13
-38 -26 -81 l-36 -40 36 0 c25 0 36 -4 36 -15 0 -12 -13 -15 -60 -15 -35 0
-60 4 -60 10 0 6 21 33 46 60 29 31 44 55 40 65 -7 20 -33 19 -44 -1 -5 -9
-17 -14 -26 -13 -15 4 -15 6 -1 27 21 29 80 31 95 3z m660 -66 c0 -69 -3 -85
-15 -85 -12 0 -15 13 -15 60 0 58 -1 60 -20 50 -28 -15 -27 6 3 35 40 41 47
32 47 -60z m-1110 -16 c0 -68 -3 -90 -12 -87 -8 3 -14 27 -16 60 -3 50 -5 55
-22 51 -11 -3 -20 -2 -20 2 0 9 52 62 63 64 4 0 7 -40 7 -90z m-530 -10 c0
-68 -3 -90 -12 -87 -8 3 -14 27 -16 60 -3 50 -5 55 -22 51 -11 -3 -20 -2 -20
1 0 10 53 65 63 66 4 0 7 -41 7 -91z m135 71 c28 -31 31 -100 5 -132 -40 -51
-88 -24 -97 54 -8 75 50 124 92 78z m275 -65 c0 -69 -3 -85 -15 -85 -12 0 -15
13 -15 60 0 58 -1 60 -20 50 -28 -15 -27 7 2 37 39 42 48 31 48 -62z m-730 55
c21 -11 35 -67 26 -104 -14 -56 -72 -75 -101 -34 -19 28 -2 37 24 14 17 -16
20 -16 35 -1 24 24 20 32 -16 27 -22 -3 -35 0 -45 14 -39 54 17 116 77 84z
m-386 -22 c8 -13 8 -23 -2 -38 -7 -11 -8 -20 -2 -20 5 0 12 -11 16 -25 15 -58
-69 -90 -103 -39 -12 20 -14 30 -6 43 6 10 9 29 6 44 -3 15 0 34 7 43 17 20
70 15 84 -8z m-2442 -5 c27 -24 22 -48 -17 -88 l-36 -35 36 0 c24 0 35 -4 35
-15 0 -12 -13 -15 -60 -15 -33 0 -60 2 -60 5 0 2 20 27 46 56 25 28 43 56 41
62 -6 19 -47 21 -47 3 0 -9 -7 -16 -15 -16 -21 0 -19 37 3 49 25 15 53 13 74
-6z m403 3 c10 -7 19 -28 21 -47 1 -19 5 -44 9 -56 8 -26 -25 -63 -57 -63 -25
0 -58 27 -58 47 0 18 26 17 34 -2 7 -18 43 -20 49 -2 7 20 -4 37 -24 37 -25 0
-24 26 1 33 24 6 26 25 4 34 -10 4 -22 -1 -29 -10 -13 -19 -35 -23 -35 -7 0
14 38 50 53 50 7 0 22 -6 32 -14z m415 -25 c0 -22 7 -46 15 -55 17 -17 20 -36
5 -36 -5 0 -10 -9 -10 -20 0 -11 -7 -20 -15 -20 -8 0 -15 9 -15 20 0 16 -7 20
-35 20 -22 0 -35 5 -35 13 0 17 68 117 80 117 6 0 10 -18 10 -39z m400 24 c0
-10 -10 -15 -29 -15 -16 0 -31 -6 -35 -15 -4 -11 2 -15 22 -15 36 0 52 -17 52
-52 0 -29 -30 -68 -53 -68 -20 0 -57 30 -57 46 0 19 20 18 35 -3 17 -23 45 -9
45 22 0 28 -25 44 -43 26 -26 -26 -40 -13 -33 31 9 56 11 58 57 58 28 0 39 -4
39 -15z m405 -5 c22 -24 12 -39 -15 -22 -27 17 -38 15 -49 -7 -9 -16 -7 -17
15 -13 54 10 84 -58 44 -98 -25 -25 -41 -25 -71 -1 -19 16 -24 29 -24 69 0 80
56 120 100 72z m419 12 c3 -5 -8 -34 -25 -67 -16 -32 -29 -68 -29 -81 0 -16
-6 -24 -16 -24 -13 0 -15 7 -11 36 4 20 15 54 26 76 l20 40 -40 -5 c-29 -4
-39 -2 -39 8 0 13 11 15 92 23 9 1 19 -2 22 -6z m-2474 -98 c0 -68 -3 -84 -15
-84 -12 0 -15 13 -15 61 0 56 -2 60 -20 54 -11 -3 -20 -3 -20 1 0 14 53 63 62
58 4 -3 8 -43 8 -90z"/>
<path d="M8098 2798 c-2 -13 -1 -39 2 -58 4 -27 10 -35 25 -35 15 0 21 8 23
34 2 19 1 44 -2 57 -8 31 -42 32 -48 2z"/>
<path d="M7693 2803 c-19 -7 -16 -50 4 -57 22 -9 35 6 31 35 -3 24 -15 31 -35
22z"/>
<path d="M7297 2794 c-14 -15 -6 -34 14 -34 14 0 19 5 17 17 -3 18 -20 27 -31
17z"/>
<path d="M7286 2714 c-4 -10 -1 -24 7 -31 19 -19 49 -5 45 21 -4 27 -43 34
-52 10z"/>
<path d="M6484 2716 c-10 -26 1 -51 21 -51 37 0 29 64 -8 65 -4 0 -10 -6 -13
-14z"/>
<path d="M5672 2690 c-11 -17 -10 -20 7 -20 14 0 18 5 14 20 -3 11 -6 20 -7
20 -1 0 -7 -9 -14 -20z"/>
<path d="M4025 2690 c-10 -45 3 -90 26 -90 23 0 34 37 25 85 -9 46 -41 49 -51
5z"/>
<path d="M3583 2703 c-19 -7 -16 -50 4 -57 22 -9 35 6 31 35 -3 24 -15 31 -35
22z"/>
<path d="M3187 2694 c-14 -15 -6 -34 14 -34 14 0 19 5 17 17 -3 18 -20 27 -31
17z"/>
<path d="M3176 2614 c-4 -10 -1 -24 7 -31 19 -19 49 -5 45 21 -4 27 -43 34
-52 10z"/>
<path d="M1572 2630 c-11 -17 -10 -20 8 -20 21 0 25 7 12 27 -6 9 -11 7 -20
-7z"/>
<path d="M2362 2593 c2 -20 9 -28 23 -28 14 0 21 8 23 28 3 23 0 27 -23 27
-23 0 -26 -4 -23 -27z"/>
<path d="M9965 2390 c-115 -4 -263 -8 -327 -9 l-118 -1 0 -96 0 -97 288 7
c158 3 374 9 480 13 l192 6 0 93 0 94 -152 -2 c-84 -1 -247 -5 -363 -8z"/>
<path d="M8570 2155 c-2099 -54 -5119 -110 -7030 -130 -800 -9 -1474 -18
-1497 -21 l-43 -5 0 -254 0 -254 67 -3 c44 -2 67 -7 69 -16 1 -7 0 -8 -3 -2
-2 5 -34 10 -69 10 l-64 0 0 -95 0 -95 65 0 64 0 4 83 3 82 2 -82 2 -83 173 0
c94 0 858 9 1697 20 2062 26 4415 71 6600 125 998 25 1832 45 1853 45 l37 0 0
97 0 96 -287 -7 c-159 -3 -374 -9 -480 -13 l-192 -6 -4 -91 -3 -91 -2 96 -2
96 198 6 c108 4 326 10 485 13 l287 7 0 259 0 258 -122 -1 c-68 -1 -881 -21
-1808 -44z m388 -21 c34 -23 28 -61 -15 -100 l-37 -34 43 0 c66 0 47 -24 -22
-28 -70 -4 -73 8 -17 63 45 43 54 85 20 85 -11 0 -23 -7 -26 -15 -7 -17 -34
-21 -34 -5 0 14 38 50 53 50 7 0 23 -7 35 -16z m290 0 c32 -22 27 -53 -15 -96
l-37 -38 37 0 c26 0 37 -4 37 -15 0 -12 -13 -15 -55 -15 -47 0 -55 3 -55 18 0
10 18 35 40 55 44 39 54 77 20 77 -11 0 -23 -7 -26 -15 -8 -19 -34 -20 -34 -1
0 16 37 46 55 46 6 0 21 -7 33 -16z m127 -4 c12 -13 15 -27 11 -44 -3 -14 -2
-28 4 -31 19 -12 10 -54 -15 -71 -31 -21 -73 -11 -84 19 -11 28 7 37 25 12 17
-23 48 -15 52 13 3 17 -2 22 -17 22 -12 0 -21 6 -21 15 0 8 7 15 15 15 8 0 15
9 15 20 0 13 -7 20 -20 20 -11 0 -20 -7 -20 -15 0 -8 -7 -15 -15 -15 -20 0
-19 19 2 42 21 23 45 23 68 -2z m-525 -9 c15 -30 13 -38 -26 -81 l-36 -40 36
0 c25 0 36 -4 36 -15 0 -12 -13 -15 -60 -15 -37 0 -60 4 -60 11 0 6 20 31 45
56 47 46 56 70 29 80 -11 4 -23 -2 -35 -18 -16 -21 -18 -22 -24 -6 -10 26 13
47 51 47 23 0 37 -6 44 -19z m-816 -7 c47 -18 39 -67 -18 -116 l-31 -27 43 -1
c52 0 55 -15 5 -24 -57 -9 -83 -7 -83 5 0 7 20 34 45 60 29 31 43 54 39 63 -8
20 -43 21 -50 1 -7 -17 -34 -21 -34 -5 0 15 38 50 54 50 8 0 22 -3 30 -6z
m140 -16 c23 -33 21 -113 -4 -138 -26 -26 -44 -25 -70 2 -14 15 -20 35 -20 68
0 54 22 90 55 90 13 0 31 -10 39 -22z m308 5 c26 -23 23 -38 -18 -83 l-36 -40
36 0 c25 0 36 -4 36 -15 0 -12 -13 -15 -60 -15 -37 0 -60 4 -60 11 0 6 21 31
46 55 25 25 44 50 41 57 -6 20 -40 21 -54 1 -20 -27 -37 -4 -17 24 18 26 60
29 86 5z m108 -37 c0 -29 3 -68 6 -85 5 -24 3 -31 -8 -31 -16 0 -28 40 -28 90
0 23 -4 27 -20 23 -11 -3 -20 -2 -20 3 0 9 51 53 63 54 4 0 7 -24 7 -54z
m-820 4 c17 -33 12 -98 -10 -120 -22 -22 -60 -26 -78 -8 -17 17 -15 38 3 38 8
0 15 -4 15 -10 0 -5 9 -10 20 -10 11 0 20 2 20 4 0 2 2 11 5 19 5 10 -1 13
-24 9 -40 -6 -70 36 -52 74 21 46 77 49 101 4z m-150 -55 c0 -69 -3 -85 -15
-85 -12 0 -15 14 -15 62 0 48 -3 59 -12 50 -15 -15 -28 -16 -28 -2 0 12 50 59
63 60 4 0 7 -38 7 -85z m-400 43 c0 -18 3 -57 6 -85 6 -45 4 -53 -10 -53 -10
0 -16 8 -16 24 0 48 -12 87 -26 82 -26 -10 -25 14 3 39 37 32 43 31 43 -7z
m140 17 c7 -8 10 -26 8 -40 -3 -14 -1 -28 3 -31 15 -9 10 -46 -8 -66 -18 -20
-63 -24 -81 -6 -15 15 -16 65 -1 74 8 4 8 9 0 17 -14 14 -14 40 1 55 17 17 63
15 78 -3z m-946 -32 c11 -72 7 -133 -9 -133 -12 0 -15 13 -15 60 0 58 -1 60
-20 50 -28 -15 -27 6 3 35 30 31 34 30 41 -12z m146 18 c5 -11 10 -22 10 -25
0 -13 -24 -5 -35 11 -11 15 -15 15 -29 4 -22 -18 -20 -34 3 -28 31 8 61 -20
61 -57 0 -17 -5 -37 -12 -44 -17 -17 -58 -15 -80 5 -24 22 -25 109 -1 135 22
24 69 24 83 -1z m270 -66 c0 -69 -3 -85 -15 -85 -12 0 -15 13 -15 60 0 58 -1
60 -20 50 -28 -15 -27 7 2 37 39 42 48 31 48 -62z m150 78 c0 -4 -11 -30 -25
-58 -13 -27 -27 -63 -30 -78 -8 -37 -31 -29 -27 9 2 16 11 46 21 67 l18 37
-33 0 c-24 0 -34 5 -34 15 0 12 13 15 55 15 30 0 55 -3 55 -7z m-980 -82 c0
-38 3 -76 6 -85 4 -10 1 -16 -9 -16 -19 0 -27 21 -27 75 0 38 -2 43 -20 38
-11 -3 -20 -2 -20 3 0 9 51 53 63 54 4 0 7 -31 7 -69z m150 59 c0 -5 -8 -10
-18 -10 -10 0 -27 -7 -38 -15 -18 -14 -18 -14 5 -15 59 0 83 -75 35 -106 -33
-22 -78 -9 -82 24 -4 25 13 29 26 6 14 -26 47 -13 50 20 4 28 3 29 -37 22 -45
-7 -46 -5 -35 53 6 29 9 31 50 31 24 0 44 -4 44 -10z m-1222 -16 c32 -22 27
-53 -15 -96 l-37 -38 37 0 c26 0 37 -4 37 -15 0 -12 -13 -15 -55 -15 -69 0
-72 15 -15 71 22 22 40 46 40 55 0 22 -31 30 -45 11 -15 -21 -35 -22 -35 -3 0
16 37 46 55 46 6 0 21 -7 33 -16z m262 -69 c0 -69 -3 -85 -15 -85 -12 0 -15
14 -15 62 0 48 -3 59 -12 50 -15 -15 -28 -16 -28 -2 0 12 50 59 63 60 4 0 7
-38 7 -85z m144 63 c8 -13 8 -23 -1 -37 -10 -16 -9 -20 2 -25 8 -3 15 -15 15
-27 0 -55 -74 -80 -105 -37 -19 29 -2 37 26 12 18 -16 21 -16 36 -2 20 20 10
48 -17 48 -26 0 -26 17 0 25 21 7 27 30 9 40 -5 4 -19 -1 -29 -10 -27 -24 -44
-15 -24 13 19 28 71 27 88 0z m404 -36 c2 -29 7 -52 13 -52 5 0 9 -7 9 -15 0
-8 -4 -15 -10 -15 -5 0 -10 -9 -10 -20 0 -11 -7 -20 -15 -20 -8 0 -15 9 -15
20 0 16 -7 20 -35 20 -20 0 -35 5 -35 12 0 19 74 128 85 125 6 -2 11 -27 13
-55z m-940 -40 c2 -68 0 -82 -13 -82 -12 0 -15 13 -15 60 0 58 -1 60 -20 50
-15 -8 -20 -8 -20 2 0 17 42 59 54 55 6 -2 12 -39 14 -85z m802 2 c0 -64 -3
-85 -12 -82 -8 3 -14 27 -16 60 -3 50 -5 55 -22 51 -11 -3 -20 -2 -20 3 0 9
51 53 63 54 4 0 7 -39 7 -86z m-1106 45 c3 -17 6 -58 6 -90 0 -46 -3 -59 -15
-59 -12 0 -15 14 -15 67 0 52 -3 64 -12 55 -32 -32 -37 -3 -5 32 29 32 33 31
41 -5z m-534 -1 c0 -13 3 -53 7 -90 5 -59 4 -68 -11 -68 -12 0 -16 9 -16 38 0
59 -9 80 -31 75 -26 -7 -24 5 9 37 34 34 42 36 42 8z m140 2 c15 -15 20 -33
20 -70 0 -37 -5 -55 -20 -70 -24 -24 -38 -25 -68 -4 -18 13 -22 25 -22 71 0
85 43 120 90 73z m270 -65 c0 -69 -3 -85 -15 -85 -12 0 -15 13 -15 60 0 58 -1
60 -20 50 -28 -15 -27 6 3 35 40 41 47 32 47 -60z m-716 43 c23 -33 21 -103
-4 -128 -32 -32 -90 -21 -90 17 0 18 27 16 34 -2 4 -13 10 -14 26 -5 31 16 24
35 -12 35 -24 0 -36 6 -47 26 -13 24 -13 29 2 53 22 34 69 36 91 4z m-404 -3
c7 -8 10 -26 8 -40 -3 -14 -1 -28 3 -31 15 -9 10 -46 -8 -66 -18 -20 -63 -24
-81 -6 -15 15 -16 65 -1 74 8 4 8 9 0 17 -14 14 -14 40 1 55 17 17 63 15 78
-3z m-2432 -7 c21 -21 13 -56 -19 -93 l-31 -35 31 0 c21 0 31 -5 31 -15 0 -12
-13 -15 -55 -15 -67 0 -70 11 -15 65 47 46 53 75 15 75 -16 0 -25 -6 -25 -15
0 -8 -7 -15 -15 -15 -20 0 -19 19 2 42 18 20 63 24 81 6z m401 -4 c18 -13 22
-23 17 -45 -3 -15 -1 -31 4 -34 29 -18 -10 -85 -50 -85 -21 0 -60 33 -60 50 0
16 28 12 38 -6 12 -22 47 -14 47 11 0 13 -8 21 -22 23 -28 4 -30 22 -3 29 26
7 27 43 1 43 -10 0 -21 -7 -25 -15 -7 -20 -26 -19 -26 1 0 17 27 43 45 44 6 0
21 -7 34 -16z m421 -34 c0 -27 5 -50 10 -50 6 0 10 -7 10 -15 0 -8 -4 -15 -10
-15 -5 0 -10 -9 -10 -20 0 -11 -7 -20 -15 -20 -8 0 -15 9 -15 20 0 16 -7 20
-35 20 -44 0 -44 11 1 77 47 68 64 69 64 3z m400 35 c0 -10 -11 -15 -35 -15
-25 0 -35 -4 -35 -16 0 -8 5 -12 10 -9 15 9 57 -20 65 -45 4 -13 0 -31 -9 -45
-26 -40 -106 -31 -106 12 0 18 27 16 34 -2 8 -21 33 -19 45 4 7 13 6 24 -4 37
-12 16 -17 17 -35 6 -29 -18 -40 -7 -34 31 10 55 11 57 59 57 33 0 45 -4 45
-15z m394 -1 c20 -20 20 -34 1 -34 -8 0 -15 5 -15 11 0 17 -44 6 -48 -12 -2
-13 3 -15 23 -12 34 7 55 -13 55 -53 0 -25 -7 -38 -26 -50 -24 -16 -27 -16
-52 3 -23 17 -27 29 -30 76 -3 48 0 57 20 71 29 20 52 20 72 0z m426 5 c0 -7
-9 -26 -19 -43 -11 -17 -24 -50 -30 -73 -7 -26 -18 -43 -26 -43 -18 0 -10 49
17 103 l18 37 -35 0 c-34 0 -47 13 -22 23 25 10 97 7 97 -4z m-2480 -90 c0
-68 -3 -90 -12 -87 -8 3 -14 27 -16 60 -3 50 -5 55 -22 51 -11 -3 -20 -2 -20
3 0 9 52 63 63 64 4 0 7 -41 7 -91z"/>
<path d="M8114 2077 c-3 -8 -4 -34 -2 -58 2 -36 7 -44 23 -44 18 0 20 7 20 55
0 44 -3 55 -18 58 -9 2 -20 -3 -23 -11z"/>
<path d="M7702 2068 c-16 -16 -15 -33 4 -48 21 -18 49 9 39 39 -7 23 -25 27
-43 9z"/>
<path d="M7307 2063 c-14 -13 -6 -33 13 -33 13 0 20 7 20 20 0 19 -20 27 -33
13z"/>
<path d="M7300 1976 c0 -21 5 -26 26 -26 21 0 25 4 22 23 -2 14 -11 23 -25 25
-19 3 -23 -1 -23 -22z"/>
<path d="M6497 1994 c-13 -14 -7 -52 10 -58 22 -9 35 6 31 35 -3 23 -27 37
-41 23z"/>
<path d="M5686 1965 c-16 -24 -16 -25 4 -25 15 0 20 7 20 25 0 14 -2 25 -4 25
-2 0 -11 -11 -20 -25z"/>
<path d="M4044 1977 c-3 -8 -4 -34 -2 -58 2 -36 7 -44 23 -44 18 0 20 7 20 55
0 44 -3 55 -18 58 -9 2 -20 -3 -23 -11z"/>
<path d="M3592 1968 c-16 -16 -15 -33 4 -48 22 -19 54 12 38 37 -14 22 -27 26
-42 11z"/>
<path d="M3197 1963 c-14 -13 -6 -33 13 -33 13 0 20 7 20 20 0 19 -20 27 -33
13z"/>
<path d="M3190 1876 c0 -21 5 -26 26 -26 21 0 25 4 22 23 -2 14 -11 23 -25 25
-19 3 -23 -1 -23 -22z"/>
<path d="M1592 1910 c-16 -26 -15 -30 3 -30 9 0 15 9 15 25 0 30 -2 31 -18 5z"/>
<path d="M2380 1890 c-8 -5 -10 -17 -6 -35 9 -34 40 -30 44 6 3 28 -16 43 -38
29z"/>
<path d="M8540 1424 c-2176 -55 -4501 -98 -6752 -126 l-1788 -22 0 -158 0
-158 70 0 70 0 0 -200 0 -200 143 0 c1260 1 8239 128 9126 166 l143 6 -7 198
-7 198 133 7 c74 4 159 5 189 3 40 -3 31 -5 -36 -6 -50 -1 -132 -5 -182 -8
l-92 -7 0 -95 0 -95 178 6 c97 4 311 10 475 13 l297 7 0 98 0 97 -172 -3 -173
-3 145 8 c80 4 157 8 173 9 l27 1 0 155 0 155 -132 -1 c-73 -1 -896 -21 -1828
-45z m440 -24 c28 -28 25 -47 -15 -87 -19 -19 -35 -37 -35 -39 0 -2 16 -4 35
-4 19 0 35 -4 35 -9 0 -19 -104 -30 -115 -12 -3 6 15 33 40 61 25 29 44 57 42
63 -6 19 -39 21 -49 3 -13 -22 -39 -21 -31 2 16 43 61 54 93 22z m274 14 c47
-18 39 -66 -18 -116 l-31 -27 43 -1 c23 0 42 -4 42 -10 0 -6 -27 -10 -60 -10
-35 0 -60 4 -60 10 0 6 21 31 46 55 25 25 44 51 42 57 -7 19 -47 22 -54 4 -7
-17 -34 -22 -34 -6 0 15 38 50 54 50 8 0 22 -3 30 -6z m130 -7 c13 -10 19 -31
22 -75 4 -57 3 -62 -22 -78 -24 -16 -29 -16 -53 -3 -27 15 -41 49 -20 49 6 0
17 -7 24 -17 16 -21 45 -10 45 17 0 13 -7 20 -20 20 -11 0 -20 6 -20 14 0 7 9
16 20 19 24 6 26 25 4 34 -11 4 -22 -1 -30 -12 -11 -15 -16 -16 -27 -6 -10 10
-7 16 12 32 27 22 41 24 65 6z m-526 -9 c21 -21 13 -51 -25 -90 l-37 -38 37 0
c26 0 37 -4 37 -15 0 -12 -13 -15 -55 -15 -68 0 -72 15 -15 70 22 22 40 46 40
55 0 23 -31 31 -45 12 -15 -20 -35 -22 -35 -4 0 22 22 37 55 37 17 0 36 -5 43
-12z m-800 -24 c31 -22 27 -51 -13 -91 -19 -19 -35 -37 -35 -39 0 -3 16 -2 35
2 27 5 35 3 35 -9 0 -10 -15 -16 -52 -20 -29 -3 -57 -1 -62 3 -4 5 13 31 39
59 30 32 45 56 41 66 -7 20 -46 20 -46 0 0 -8 -7 -15 -15 -15 -21 0 -19 30 3
46 23 18 43 17 70 -2z m128 -5 c23 -25 26 -107 5 -132 -17 -21 -64 -22 -81 -2
-7 8 -15 35 -18 60 -9 80 48 125 94 74z m314 2 c17 -32 12 -48 -27 -86 l-36
-35 36 0 c26 0 37 -4 37 -15 0 -12 -13 -15 -55 -15 -67 0 -70 11 -15 65 40 39
51 70 28 78 -19 6 -38 -3 -38 -19 0 -8 -7 -14 -15 -14 -18 0 -20 31 -3 48 20
20 76 15 88 -7z m110 -66 c0 -69 -3 -85 -15 -85 -12 0 -15 13 -15 60 0 60 -6
70 -28 48 -23 -23 -13 14 10 39 39 42 48 31 48 -62z m-846 54 c22 -17 26 -28
26 -70 0 -74 -53 -115 -94 -73 -20 20 -20 34 -1 34 8 0 15 -5 15 -11 0 -17 44
-6 48 12 2 13 -3 15 -23 12 -34 -7 -55 13 -55 53 0 23 7 38 22 48 29 20 30 20
62 -5z m-394 -9 c22 -22 26 -45 10 -55 -7 -4 -5 -14 5 -28 19 -28 19 -33 -5
-57 -24 -24 -57 -26 -82 -3 -19 17 -24 58 -8 68 7 4 7 12 0 25 -13 24 -3 49
24 60 31 13 34 12 56 -10z m264 -11 c3 -17 6 -56 6 -85 0 -41 -4 -54 -15 -54
-12 0 -15 13 -15 60 0 60 -6 70 -28 48 -23 -23 -13 14 10 39 28 30 34 29 42
-8z m-394 -64 c0 -69 -3 -85 -15 -85 -12 0 -15 13 -15 60 0 58 -1 60 -20 50
-28 -15 -27 6 3 35 40 41 47 32 47 -60z m-810 -10 c0 -69 -3 -85 -15 -85 -12
0 -15 13 -15 60 0 58 -1 60 -20 50 -28 -15 -27 6 3 35 40 41 47 32 47 -60z
m138 73 c15 -15 16 -38 1 -38 -7 0 -17 8 -24 17 -11 15 -15 15 -29 4 -23 -20
-20 -30 10 -28 18 1 33 -6 47 -26 20 -26 20 -30 6 -55 -20 -37 -71 -42 -93
-10 -20 29 -21 97 0 126 17 24 62 30 82 10z m272 -73 c0 -69 -3 -85 -15 -85
-12 0 -15 13 -15 60 0 58 -1 60 -20 50 -28 -15 -27 6 3 35 40 41 47 32 47 -60z
m160 80 c0 -3 -10 -19 -21 -35 -12 -16 -27 -50 -34 -76 -7 -27 -17 -50 -23
-52 -20 -6 -14 52 11 99 l22 44 -37 -3 c-30 -3 -38 -1 -38 12 0 13 12 16 60
16 33 0 60 -2 60 -5z m-980 -101 c0 -68 -3 -84 -15 -84 -12 0 -15 13 -15 61 0
56 -2 60 -20 54 -12 -4 -20 -2 -20 5 0 14 53 60 62 53 5 -2 8 -42 8 -89z m148
79 c2 -9 -8 -13 -32 -13 -25 0 -36 -4 -36 -15 0 -9 9 -15 25 -15 15 0 31 -10
42 -26 15 -23 15 -29 2 -52 -23 -40 -45 -50 -77 -32 -30 17 -42 50 -19 50 8 0
17 -7 21 -15 3 -8 15 -15 26 -15 16 0 20 7 20 31 0 31 0 32 -41 25 -40 -6 -41
-6 -35 16 3 13 6 33 6 45 0 17 7 23 33 26 46 6 60 4 65 -10z m-1230 -19 c32
-22 27 -53 -15 -96 l-37 -38 43 0 c66 0 47 -24 -22 -28 -71 -4 -74 10 -17 64
45 42 54 84 20 84 -11 0 -23 -7 -26 -15 -7 -17 -34 -21 -34 -5 0 14 38 50 53
50 7 0 23 -7 35 -16z m262 -8 c0 -12 3 -51 6 -85 6 -52 5 -61 -10 -61 -11 0
-16 9 -16 33 0 49 -11 79 -26 73 -26 -10 -25 14 3 39 35 31 43 31 43 1z m140
9 c7 -8 10 -26 8 -40 -3 -14 -1 -28 3 -31 15 -9 10 -46 -8 -66 -32 -36 -105
-13 -89 28 6 15 9 15 26 -4 11 -12 27 -19 35 -16 22 9 18 45 -5 51 -23 6 -27
33 -5 33 18 0 20 26 3 36 -6 4 -16 0 -23 -9 -15 -20 -35 -22 -35 -4 0 35 66
51 90 22z m410 -40 c0 -30 5 -55 10 -55 6 0 10 -7 10 -15 0 -8 -4 -15 -9 -15
-5 0 -11 -9 -14 -20 -3 -11 -10 -20 -16 -20 -6 0 -11 9 -11 20 0 16 -7 20 -35
20 -23 0 -35 5 -35 13 0 18 78 127 91 127 5 0 9 -25 9 -55z m-940 -40 c0 -69
-3 -85 -15 -85 -12 0 -15 13 -15 60 0 58 -1 60 -20 50 -28 -15 -27 8 3 37 40
40 47 30 47 -62z m808 -3 c2 -68 0 -82 -13 -82 -12 0 -15 13 -15 61 0 56 -2
60 -20 54 -12 -4 -20 -2 -20 5 0 15 42 50 55 46 6 -1 11 -39 13 -84z m-1236
-29 c3 -51 0 -73 -8 -73 -16 0 -24 24 -24 75 0 38 -2 43 -20 38 -29 -8 -24 7
13 38 37 31 34 35 39 -78z m128 16 c0 -68 -3 -90 -12 -87 -8 3 -14 27 -16 62
-3 51 -5 56 -23 51 -11 -4 -19 -2 -19 5 0 12 50 59 63 60 4 0 7 -41 7 -91z
m-530 -15 c0 -68 -3 -84 -15 -84 -12 0 -15 13 -15 61 0 56 -2 60 -20 54 -12
-4 -20 -2 -20 5 0 14 53 60 62 53 5 -2 8 -42 8 -89z m134 74 c10 -13 16 -44
16 -75 0 -45 -4 -55 -25 -69 -46 -30 -85 8 -85 84 0 47 24 82 55 82 13 0 31
-10 39 -22z m-854 -18 c22 -22 26 -45 10 -55 -7 -4 -5 -14 5 -28 19 -28 19
-33 -5 -57 -24 -24 -57 -26 -82 -3 -19 17 -24 58 -8 68 7 4 7 12 0 25 -13 24
-3 49 24 60 31 13 34 12 56 -10z m402 3 c23 -21 25 -99 2 -131 -18 -26 -56
-29 -78 -6 -20 20 -20 34 -1 34 8 0 15 -5 15 -11 0 -14 42 -7 48 9 2 8 -7 12
-25 12 -37 0 -53 16 -53 55 0 17 5 36 12 43 17 17 58 15 80 -5z m-2834 -15
c21 -21 13 -61 -20 -95 l-32 -33 37 0 c26 0 37 -4 37 -15 0 -12 -13 -15 -60
-15 -34 0 -60 4 -60 10 0 6 18 30 40 54 22 24 40 50 40 59 0 28 -22 31 -42 7
-14 -17 -22 -20 -30 -12 -9 9 -7 17 7 32 20 22 64 27 83 8z m403 1 c13 -7 19
-20 19 -42 0 -18 2 -46 6 -63 5 -26 2 -35 -17 -48 -30 -20 -48 -20 -71 1 -22
20 -24 43 -3 43 8 0 15 -7 15 -16 0 -25 44 -13 48 14 3 17 -2 22 -17 22 -12 0
-21 6 -21 15 0 8 7 15 15 15 8 0 15 9 15 20 0 13 -7 20 -20 20 -11 0 -20 -7
-20 -15 0 -8 -7 -15 -15 -15 -20 0 -19 19 2 42 18 21 36 23 64 7z m419 -39 c0
-27 5 -50 10 -50 6 0 10 -7 10 -15 0 -8 -4 -15 -10 -15 -5 0 -10 -9 -10 -20 0
-11 -7 -20 -15 -20 -8 0 -15 9 -15 20 0 16 -7 20 -35 20 -19 0 -35 5 -35 10 0
19 73 120 86 120 10 0 14 -15 14 -50z m400 35 c0 -10 -11 -15 -35 -15 -23 0
-35 -5 -35 -14 0 -9 7 -12 19 -9 24 6 61 -29 61 -59 0 -30 -28 -58 -58 -58
-25 0 -62 25 -62 42 0 14 22 9 42 -9 17 -15 20 -15 34 -1 20 20 10 58 -16 58
-10 0 -22 -4 -25 -10 -20 -32 -33 14 -19 68 5 18 13 22 50 22 32 0 44 -4 44
-15z m398 3 c17 -17 15 -38 -3 -38 -8 0 -15 5 -15 10 0 6 -9 10 -20 10 -11 0
-20 -2 -20 -4 0 -2 -2 -10 -5 -18 -4 -9 4 -13 27 -13 24 0 36 -6 47 -26 13
-24 13 -29 -2 -53 -24 -35 -70 -36 -93 -1 -21 33 -14 113 12 132 22 16 56 17
72 1z m424 6 c4 -3 -7 -30 -23 -61 -16 -30 -29 -66 -29 -79 0 -15 -6 -24 -15
-24 -22 0 -19 48 5 95 11 22 20 41 20 42 0 2 -16 3 -35 3 -24 0 -35 5 -35 15
0 11 13 15 53 15 30 0 56 -3 59 -6z m-2482 -41 c0 -21 3 -62 6 -90 6 -45 4
-53 -10 -53 -11 0 -16 9 -16 29 0 60 -11 89 -31 84 -26 -7 -24 5 9 37 37 37
42 36 42 -7z m9680 -64 c-25 -4 -63 -7 -85 -7 -38 1 -38 1 10 8 28 4 66 7 85
7 31 0 30 0 -10 -8z"/>
<path d="M8127 1353 c-13 -12 -7 -79 8 -99 15 -19 15 -19 30 0 16 21 19 47 9
84 -6 21 -33 30 -47 15z"/>
<path d="M7717 1344 c-4 -4 -7 -18 -7 -31 0 -18 5 -23 26 -23 22 0 25 4 22 27
-3 27 -26 41 -41 27z"/>
<path d="M7316 1325 c-3 -9 1 -18 10 -22 19 -7 39 11 30 26 -10 16 -33 13 -40
-4z"/>
<path d="M7317 1263 c-4 -3 -7 -15 -7 -25 0 -21 45 -26 52 -5 11 28 -24 52
-45 30z"/>
<path d="M6512 1258 c-16 -16 -15 -33 4 -48 22 -19 54 12 38 37 -14 22 -27 26
-42 11z"/>
<path d="M5702 1240 c-16 -26 -15 -30 3 -30 9 0 15 9 15 25 0 30 -2 31 -18 5z"/>
<path d="M4054 1247 c-3 -8 -4 -34 -2 -58 2 -36 7 -44 23 -44 18 0 20 7 20 55
0 44 -3 55 -18 58 -9 2 -20 -3 -23 -11z"/>
<path d="M3205 1230 c-4 -7 -3 -16 3 -22 14 -14 45 -2 40 15 -6 16 -34 21 -43
7z"/>
<path d="M3207 1163 c-4 -3 -7 -15 -7 -25 0 -21 45 -26 52 -5 11 28 -24 52
-45 30z"/>
<path d="M3607 1244 c-12 -12 -8 -52 6 -57 22 -8 39 8 35 34 -3 23 -27 37 -41
23z"/>
<path d="M1600 1170 c-9 -16 -8 -20 5 -20 8 0 15 9 15 20 0 11 -2 20 -5 20 -2
0 -9 -9 -15 -20z"/>
<path d="M2392 1158 c-16 -16 -15 -33 4 -48 22 -19 54 12 38 37 -14 22 -27 26
-42 11z"/>
<path d="M0 855 l0 -95 65 0 65 0 0 95 0 95 -65 0 -65 0 0 -95z"/>
<path d="M9935 930 c-115 -4 -247 -8 -292 -9 l-83 -1 0 -96 0 -97 218 7 c119
3 331 9 470 12 l252 7 0 93 0 94 -177 -2 c-98 -1 -272 -5 -388 -8z"/>
<path d="M0 655 l0 -95 65 0 65 0 0 95 0 95 -65 0 -65 0 0 -95z"/>
<path d="M9145 710 c-588 -15 -1178 -30 -1310 -34 -1274 -33 -3921 -81 -5865
-106 -850 -11 -1641 -20 -1757 -20 l-213 0 0 -275 0 -275 69 0 c68 0 70 1 74
28 l4 27 2 -28 1 -28 5178 3 c2847 2 5103 5 5012 8 l-165 6 163 2 162 2 0 360
0 360 -142 -1 c-79 -1 -624 -14 -1213 -29z m-287 -36 c33 -23 28 -61 -14 -100
l-35 -34 41 0 c65 0 45 -24 -23 -28 -70 -4 -73 8 -17 63 45 43 54 85 20 85
-11 0 -23 -7 -26 -15 -4 -8 -12 -15 -20 -15 -36 0 6 53 46 59 3 1 16 -6 28
-15z m134 -1 c27 -25 22 -53 -19 -96 l-38 -40 38 6 c28 4 37 2 37 -9 0 -8 -10
-14 -24 -14 -13 0 -38 -3 -55 -6 -45 -9 -41 20 10 72 27 28 40 48 36 58 -8 20
-47 21 -47 1 0 -8 -7 -15 -15 -15 -20 0 -19 19 2 42 20 22 51 23 75 1z m290 0
c27 -24 22 -51 -16 -89 l-34 -34 34 0 c24 0 34 -5 34 -15 0 -12 -13 -15 -60
-15 -33 0 -60 3 -60 7 0 4 21 28 46 54 31 31 45 53 41 63 -8 20 -47 21 -47 1
0 -8 -7 -15 -15 -15 -21 0 -19 30 3 46 23 18 52 17 74 -3z m123 -3 c11 -12 15
-28 12 -41 -3 -11 0 -32 6 -46 10 -22 8 -28 -16 -49 -16 -13 -35 -24 -43 -24
-16 0 -54 35 -54 50 0 16 27 12 34 -5 7 -20 42 -19 50 1 8 21 -1 34 -25 34
-25 0 -25 26 1 33 11 3 20 12 20 21 0 20 -36 21 -47 1 -5 -9 -13 -11 -22 -6
-11 7 -9 13 8 30 26 26 53 27 76 1z m-785 -96 c0 -68 -3 -84 -15 -84 -12 0
-15 13 -15 60 0 58 -1 60 -20 50 -15 -8 -20 -8 -20 1 0 16 53 69 62 63 5 -3 8
-43 8 -90z m-548 69 c9 -10 18 -27 21 -38 3 -17 6 -15 17 13 20 53 81 57 100
7 26 -67 1 -135 -49 -135 -34 0 -46 13 -56 58 -3 17 -10 32 -14 32 -4 0 -20
-13 -36 -30 l-29 -30 32 0 c22 0 32 -5 32 -15 0 -12 -13 -15 -55 -15 -67 0
-70 11 -15 65 47 46 53 75 15 75 -16 0 -25 -6 -25 -15 0 -8 -7 -15 -15 -15
-20 0 -19 19 2 42 20 23 55 23 75 1z m436 5 c22 -22 13 -59 -22 -94 l-34 -34
40 0 c64 0 42 -24 -25 -28 -70 -4 -73 8 -17 63 38 38 50 68 31 79 -14 9 -41
-4 -41 -20 0 -8 -7 -14 -15 -14 -20 0 -19 24 1 44 18 19 65 21 82 4z m-727
-17 c31 -25 34 -108 5 -140 -25 -27 -61 -27 -81 1 -16 25 -2 39 18 19 17 -17
44 -13 49 7 4 15 1 18 -19 14 -53 -10 -83 58 -43 98 25 25 41 25 71 1z m-402
-7 c18 -13 22 -23 17 -45 -3 -15 -1 -31 4 -34 19 -12 10 -54 -15 -71 -48 -32
-113 14 -87 62 6 11 8 31 5 45 -4 20 1 31 18 43 29 20 29 20 58 0z m271 -69
c0 -69 -3 -85 -15 -85 -12 0 -15 13 -15 60 0 58 -1 60 -20 50 -28 -15 -27 8 3
37 40 40 47 30 47 -62z m-800 16 c0 -32 3 -73 6 -90 5 -24 3 -31 -8 -31 -16 0
-28 40 -28 90 0 23 -4 27 -20 23 -11 -3 -20 -2 -20 2 0 9 52 62 63 64 4 0 7
-25 7 -58z m160 50 c0 -5 -11 -28 -24 -52 -14 -24 -28 -61 -31 -81 -5 -24 -13
-38 -22 -38 -21 0 -12 57 17 112 l21 41 -40 -7 c-32 -5 -41 -3 -41 8 0 14 19
18 98 24 12 1 22 -2 22 -7z m240 -76 c0 -69 -3 -85 -15 -85 -12 0 -15 13 -15
60 0 58 -1 60 -20 50 -28 -15 -27 6 3 35 40 41 47 32 47 -60z m-810 -10 c0
-69 -3 -85 -15 -85 -12 0 -15 14 -15 62 0 48 -3 59 -12 50 -15 -15 -28 -16
-28 -2 0 12 50 59 63 60 4 0 7 -38 7 -85z m136 77 c19 -13 25 -42 8 -42 -8 0
-17 7 -20 15 -8 21 -31 19 -44 -4 -14 -28 -12 -36 5 -21 22 19 63 -2 71 -36
18 -72 -78 -103 -106 -34 -14 33 -8 93 11 116 12 15 57 19 75 6z m-546 -98 c0
-68 -3 -84 -15 -84 -12 0 -15 13 -15 61 0 56 -2 60 -20 54 -11 -3 -20 -3 -20
1 0 14 53 63 62 58 4 -3 8 -43 8 -90z m150 81 c0 -10 -11 -15 -35 -15 -24 0
-35 -5 -35 -15 0 -9 9 -15 22 -15 28 0 58 -28 58 -55 0 -27 -35 -65 -60 -65
-21 0 -60 33 -60 50 0 16 27 12 34 -5 8 -22 44 -18 51 6 10 31 -16 55 -43 40
-30 -16 -32 -14 -32 20 0 51 16 69 60 69 29 0 40 -4 40 -15z m-1360 -96 c0
-68 -3 -90 -12 -87 -8 3 -14 27 -16 60 -3 50 -5 55 -22 51 -11 -3 -20 -2 -20
3 0 6 59 62 68 64 1 0 2 -41 2 -91z m140 71 c29 -29 25 -48 -20 -92 l-41 -38
41 0 c47 0 53 -15 9 -24 -45 -9 -77 -7 -84 3 -3 6 15 33 40 61 25 29 44 57 42
63 -6 19 -39 21 -49 3 -10 -18 -38 -22 -38 -6 0 17 39 50 60 50 11 0 29 -9 40
-20z m260 -65 c0 -69 -3 -85 -15 -85 -12 0 -15 13 -15 60 0 58 -1 60 -20 50
-28 -15 -27 6 3 35 40 41 47 32 47 -60z m140 65 c7 -14 7 -26 1 -39 -8 -14 -7
-22 4 -31 20 -17 19 -36 -5 -60 -26 -26 -62 -26 -85 0 -15 16 -16 23 -6 33 10
9 14 8 22 -5 16 -28 49 -23 49 7 0 18 -5 25 -20 25 -11 0 -20 6 -20 14 0 7 9
16 20 19 24 6 26 25 4 34 -10 4 -22 -1 -29 -10 -12 -16 -35 -23 -35 -11 0 3 5
14 10 25 15 27 75 26 90 -1z m270 -76 c0 -68 -3 -84 -15 -84 -12 0 -15 13 -15
60 0 60 -6 70 -28 48 -9 -9 -12 -9 -12 2 0 18 51 71 62 64 4 -3 8 -43 8 -90z
m130 41 c0 -44 3 -55 16 -55 9 0 13 -5 10 -12 -3 -7 -9 -21 -12 -30 -8 -22
-34 -24 -34 -3 0 10 -10 15 -34 15 -19 0 -38 4 -41 10 -7 11 71 130 85 130 6
0 10 -25 10 -55z m-1360 -61 c0 -68 -3 -84 -15 -84 -12 0 -15 13 -15 61 0 56
-2 60 -20 54 -12 -4 -20 -2 -20 5 0 14 53 60 62 53 5 -2 8 -42 8 -89z m120 11
c0 -69 -3 -85 -15 -85 -12 0 -15 13 -15 56 0 51 -2 55 -20 49 -11 -3 -20 -3
-20 1 0 11 52 64 62 64 4 0 8 -38 8 -85z m-532 -10 c-3 -96 -21 -116 -26 -30
-3 50 -5 55 -23 50 -11 -4 -19 -2 -19 5 0 12 50 59 63 60 4 0 6 -38 5 -85z
m141 59 c35 -45 25 -120 -20 -144 -62 -34 -108 99 -53 154 23 23 50 19 73 -10z
m-458 -3 c31 -25 34 -108 5 -140 -25 -27 -61 -27 -81 1 -16 25 -2 39 18 19 17
-17 44 -13 49 7 4 15 1 18 -19 14 -53 -10 -83 58 -43 98 25 25 41 25 71 1z
m-403 -7 c15 -10 22 -25 21 -47 0 -18 2 -44 6 -59 15 -56 -82 -78 -106 -24 -8
16 -8 29 -1 42 6 11 8 31 5 45 -4 20 1 31 18 43 29 20 29 20 57 0z m-2426 -21
c26 -23 23 -38 -18 -83 l-36 -40 36 0 c25 0 36 -4 36 -15 0 -12 -13 -15 -60
-15 -37 0 -60 4 -60 11 0 6 20 30 45 55 50 48 53 55 29 75 -15 12 -19 11 -32
-9 -18 -27 -32 -29 -32 -4 0 41 57 57 92 25z m408 -3 c22 -22 25 -36 10 -45
-6 -4 -4 -15 6 -30 12 -18 13 -28 4 -44 -11 -21 -40 -41 -59 -41 -14 0 -51 37
-51 50 0 16 27 12 34 -5 7 -18 43 -20 49 -2 7 20 -4 37 -24 37 -25 0 -24 26 1
33 24 6 26 25 4 34 -11 4 -22 -1 -30 -12 -11 -15 -16 -16 -27 -6 -10 10 -7 16
12 32 30 24 46 24 71 -1z m410 -30 c0 -38 4 -50 15 -50 8 0 15 -7 15 -15 0 -8
-4 -15 -9 -15 -5 0 -11 -9 -14 -20 -3 -11 -10 -20 -16 -20 -6 0 -11 9 -11 20
0 16 -7 20 -35 20 -45 0 -45 15 -2 80 42 64 57 64 57 0z m400 36 c0 -9 -12
-16 -32 -18 -17 -2 -33 -9 -36 -16 -2 -7 2 -10 12 -6 9 3 27 -1 41 -10 47 -31
22 -106 -35 -106 -28 0 -50 16 -50 37 0 18 20 16 34 -3 16 -22 46 -7 46 22 0
29 -25 42 -51 26 -24 -15 -31 -2 -23 47 7 41 7 41 50 41 32 0 44 -4 44 -14z
m402 -3 c10 -9 18 -20 18 -25 0 -13 -22 -9 -41 7 -15 14 -18 14 -33 0 -24 -24
-20 -32 16 -27 22 3 35 0 45 -14 30 -42 5 -94 -46 -94 -39 0 -56 25 -56 80 0
76 51 115 97 73z m428 6 c0 -6 -9 -22 -19 -35 -11 -14 -25 -47 -32 -74 -8 -31
-18 -50 -27 -50 -19 0 -8 62 18 108 l19 32 -39 0 c-38 0 -49 8 -33 23 11 12
113 8 113 -4z m-2480 -89 c0 -60 -3 -79 -15 -84 -12 -4 -15 6 -15 61 0 52 -3
64 -12 55 -15 -15 -28 -16 -28 -2 0 15 53 59 62 53 5 -2 8 -39 8 -83z m-263
-107 c-2 -16 -4 -5 -4 22 0 28 2 40 4 28 2 -13 2 -35 0 -50z m0 -165 c-2 -13
-4 -3 -4 22 0 25 2 35 4 23 2 -13 2 -33 0 -45z"/>
<path d="M8150 630 c-18 -11 -21 -93 -3 -111 20 -20 43 8 43 50 0 46 -19 75
-40 61z"/>
<path d="M7724 606 c-9 -24 3 -46 26 -46 17 0 21 5 18 27 -3 31 -34 44 -44 19z"/>
<path d="M7330 591 c0 -15 6 -21 21 -21 25 0 22 33 -4 38 -12 2 -17 -3 -17
-17z"/>
<path d="M7324 525 c-4 -9 -2 -21 4 -27 16 -16 47 -5 47 17 0 26 -42 34 -51
10z"/>
<path d="M6527 534 c-4 -4 -7 -18 -7 -31 0 -20 5 -24 23 -21 16 2 22 10 22 28
0 24 -23 39 -38 24z"/>
<path d="M5710 500 c-9 -16 -8 -20 5 -20 8 0 15 9 15 20 0 11 -2 20 -5 20 -2
0 -9 -9 -15 -20z"/>
<path d="M4066 514 c-11 -28 -6 -70 9 -90 15 -19 15 -19 30 0 16 21 19 47 9
84 -7 25 -39 30 -48 6z"/>
<path d="M3617 514 c-4 -4 -7 -18 -7 -31 0 -18 5 -23 26 -23 22 0 25 4 22 27
-3 27 -26 41 -41 27z"/>
<path d="M3220 491 c0 -15 6 -21 21 -21 25 0 22 33 -4 38 -12 2 -17 -3 -17
-17z"/>
<path d="M3214 425 c-4 -9 -2 -21 4 -27 16 -16 47 -5 47 17 0 26 -42 34 -51
10z"/>
<path d="M1612 440 c-10 -17 -10 -20 3 -20 8 0 15 9 15 20 0 11 -1 20 -3 20
-1 0 -8 -9 -15 -20z"/>
<path d="M2404 426 c-10 -26 1 -51 21 -51 37 0 29 64 -8 65 -4 0 -10 -6 -13
-14z"/>
</g>
</svg>
