<?xml version="1.0" encoding="utf-8"?>
<!-- Generator: Adobe Illustrator 24.2.0, SVG Export Plug-In . SVG Version: 6.00 Build 0)  -->
<svg version="1.1" id="Layer_1" xmlns="http://www.w3.org/2000/svg" xmlns:xlink="http://www.w3.org/1999/xlink" x="0px" y="0px"
	 viewBox="0 0 1920 1080" style="enable-background:new 0 0 1920 1080;" xml:space="preserve">
<style type="text/css">
	.st0{fill:#009245;}
</style>
<path class="st0" d="M109.48,104H84.52C77.63,104,72,98.37,72,91.48V66.52C72,59.63,77.63,54,84.52,54h24.96
	c6.89,0,12.52,5.63,12.52,12.52v24.96C122,98.37,116.37,104,109.48,104z"/>
<path class="st0" d="M188.48,104h-24.96c-6.89,0-12.52-5.63-12.52-12.52V66.52c0-6.89,5.63-12.52,12.52-12.52h24.96
	c6.89,0,12.52,5.63,12.52,12.52v24.96C201,98.37,195.37,104,188.48,104z"/>
<path class="st0" d="M266.48,104h-24.96c-6.89,0-12.52-5.63-12.52-12.52V66.52c0-6.89,5.63-12.52,12.52-12.52h24.96
	c6.89,0,12.52,5.63,12.52,12.52v24.96C279,98.37,273.37,104,266.48,104z"/>
<path class="st0" d="M345.48,104h-24.96c-6.89,0-12.52-5.63-12.52-12.52V66.52c0-6.89,5.63-12.52,12.52-12.52h24.96
	c6.89,0,12.52,5.63,12.52,12.52v24.96C358,98.37,352.37,104,345.48,104z"/>
<path class="st0" d="M423.48,104h-24.96c-6.89,0-12.52-5.63-12.52-12.52V66.52c0-6.89,5.63-12.52,12.52-12.52h24.96
	c6.89,0,12.52,5.63,12.52,12.52v24.96C436,98.37,430.37,104,423.48,104z"/>
<path class="st0" d="M502.48,104h-24.96c-6.89,0-12.52-5.63-12.52-12.52V66.52c0-6.89,5.63-12.52,12.52-12.52h24.96
	c6.89,0,12.52,5.63,12.52,12.52v24.96C515,98.37,509.37,104,502.48,104z"/>
<path class="st0" d="M580.48,104h-24.96c-6.89,0-12.52-5.63-12.52-12.52V66.52c0-6.89,5.63-12.52,12.52-12.52h24.96
	c6.89,0,12.52,5.63,12.52,12.52v24.96C593,98.37,587.37,104,580.48,104z"/>
<path class="st0" d="M659.48,104h-24.96c-6.89,0-12.52-5.63-12.52-12.52V66.52c0-6.89,5.63-12.52,12.52-12.52h24.96
	c6.89,0,12.52,5.63,12.52,12.52v24.96C672,98.37,666.37,104,659.48,104z"/>
<path class="st0" d="M737.48,104h-24.96c-6.89,0-12.52-5.63-12.52-12.52V66.52c0-6.89,5.63-12.52,12.52-12.52h24.96
	c6.89,0,12.52,5.63,12.52,12.52v24.96C750,98.37,744.37,104,737.48,104z"/>
<path class="st0" d="M816.48,104h-24.96c-6.89,0-12.52-5.63-12.52-12.52V66.52c0-6.89,5.63-12.52,12.52-12.52h24.96
	c6.89,0,12.52,5.63,12.52,12.52v24.96C829,98.37,823.37,104,816.48,104z"/>
<path class="st0" d="M894.48,104h-24.96c-6.89,0-12.52-5.63-12.52-12.52V66.52c0-6.89,5.63-12.52,12.52-12.52h24.96
	c6.89,0,12.52,5.63,12.52,12.52v24.96C907,98.37,901.37,104,894.48,104z"/>
<path class="st0" d="M973.48,104h-24.96c-6.89,0-12.52-5.63-12.52-12.52V66.52c0-6.89,5.63-12.52,12.52-12.52h24.96
	c6.89,0,12.52,5.63,12.52,12.52v24.96C986,98.37,980.37,104,973.48,104z"/>
<path class="st0" d="M1051.48,104h-24.96c-6.89,0-12.52-5.63-12.52-12.52V66.52c0-6.89,5.63-12.52,12.52-12.52h24.96
	c6.89,0,12.52,5.63,12.52,12.52v24.96C1064,98.37,1058.37,104,1051.48,104z"/>
<path class="st0" d="M1130.48,104h-24.96c-6.89,0-12.52-5.63-12.52-12.52V66.52c0-6.89,5.63-12.52,12.52-12.52h24.96
	c6.89,0,12.52,5.63,12.52,12.52v24.96C1143,98.37,1137.37,104,1130.48,104z"/>
<path class="st0" d="M1208.48,104h-24.96c-6.89,0-12.52-5.63-12.52-12.52V66.52c0-6.89,5.63-12.52,12.52-12.52h24.96
	c6.89,0,12.52,5.63,12.52,12.52v24.96C1221,98.37,1215.37,104,1208.48,104z"/>
<path class="st0" d="M1287.48,104h-24.96c-6.89,0-12.52-5.63-12.52-12.52V66.52c0-6.89,5.63-12.52,12.52-12.52h24.96
	c6.89,0,12.52,5.63,12.52,12.52v24.96C1300,98.37,1294.37,104,1287.48,104z"/>
<path class="st0" d="M1365.48,104h-24.96c-6.89,0-12.52-5.63-12.52-12.52V66.52c0-6.89,5.63-12.52,12.52-12.52h24.96
	c6.89,0,12.52,5.63,12.52,12.52v24.96C1378,98.37,1372.37,104,1365.48,104z"/>
<path class="st0" d="M1444.48,104h-24.96c-6.89,0-12.52-5.63-12.52-12.52V66.52c0-6.89,5.63-12.52,12.52-12.52h24.96
	c6.89,0,12.52,5.63,12.52,12.52v24.96C1457,98.37,1451.37,104,1444.48,104z"/>
<path class="st0" d="M1522.48,104h-24.96c-6.89,0-12.52-5.63-12.52-12.52V66.52c0-6.89,5.63-12.52,12.52-12.52h24.96
	c6.89,0,12.52,5.63,12.52,12.52v24.96C1535,98.37,1529.37,104,1522.48,104z"/>
<path class="st0" d="M1601.48,104h-24.96c-6.89,0-12.52-5.63-12.52-12.52V66.52c0-6.89,5.63-12.52,12.52-12.52h24.96
	c6.89,0,12.52,5.63,12.52,12.52v24.96C1614,98.37,1608.37,104,1601.48,104z"/>
<path class="st0" d="M1679.48,104h-24.96c-6.89,0-12.52-5.63-12.52-12.52V66.52c0-6.89,5.63-12.52,12.52-12.52h24.96
	c6.89,0,12.52,5.63,12.52,12.52v24.96C1692,98.37,1686.37,104,1679.48,104z"/>
<path class="st0" d="M1758.48,104h-24.96c-6.89,0-12.52-5.63-12.52-12.52V66.52c0-6.89,5.63-12.52,12.52-12.52h24.96
	c6.89,0,12.52,5.63,12.52,12.52v24.96C1771,98.37,1765.37,104,1758.48,104z"/>
<path class="st0" d="M1836.48,104h-24.96c-6.89,0-12.52-5.63-12.52-12.52V66.52c0-6.89,5.63-12.52,12.52-12.52h24.96
	c6.89,0,12.52,5.63,12.52,12.52v24.96C1849,98.37,1843.37,104,1836.48,104z"/>
<path class="st0" d="M109.48,219H84.52C77.63,219,72,213.37,72,206.48v-24.96c0-6.89,5.63-12.52,12.52-12.52h24.96
	c6.89,0,12.52,5.63,12.52,12.52v24.96C122,213.37,116.37,219,109.48,219z"/>
<path class="st0" d="M188.48,219h-24.96c-6.89,0-12.52-5.63-12.52-12.52v-24.96c0-6.89,5.63-12.52,12.52-12.52h24.96
	c6.89,0,12.52,5.63,12.52,12.52v24.96C201,213.37,195.37,219,188.48,219z"/>
<path class="st0" d="M266.48,219h-24.96c-6.89,0-12.52-5.63-12.52-12.52v-24.96c0-6.89,5.63-12.52,12.52-12.52h24.96
	c6.89,0,12.52,5.63,12.52,12.52v24.96C279,213.37,273.37,219,266.48,219z"/>
<path class="st0" d="M345.48,219h-24.96c-6.89,0-12.52-5.63-12.52-12.52v-24.96c0-6.89,5.63-12.52,12.52-12.52h24.96
	c6.89,0,12.52,5.63,12.52,12.52v24.96C358,213.37,352.37,219,345.48,219z"/>
<path class="st0" d="M423.48,219h-24.96c-6.89,0-12.52-5.63-12.52-12.52v-24.96c0-6.89,5.63-12.52,12.52-12.52h24.96
	c6.89,0,12.52,5.63,12.52,12.52v24.96C436,213.37,430.37,219,423.48,219z"/>
<path class="st0" d="M502.48,219h-24.96c-6.89,0-12.52-5.63-12.52-12.52v-24.96c0-6.89,5.63-12.52,12.52-12.52h24.96
	c6.89,0,12.52,5.63,12.52,12.52v24.96C515,213.37,509.37,219,502.48,219z"/>
<path class="st0" d="M580.48,219h-24.96c-6.89,0-12.52-5.63-12.52-12.52v-24.96c0-6.89,5.63-12.52,12.52-12.52h24.96
	c6.89,0,12.52,5.63,12.52,12.52v24.96C593,213.37,587.37,219,580.48,219z"/>
<path class="st0" d="M659.48,219h-24.96c-6.89,0-12.52-5.63-12.52-12.52v-24.96c0-6.89,5.63-12.52,12.52-12.52h24.96
	c6.89,0,12.52,5.63,12.52,12.52v24.96C672,213.37,666.37,219,659.48,219z"/>
<path class="st0" d="M737.48,219h-24.96c-6.89,0-12.52-5.63-12.52-12.52v-24.96c0-6.89,5.63-12.52,12.52-12.52h24.96
	c6.89,0,12.52,5.63,12.52,12.52v24.96C750,213.37,744.37,219,737.48,219z"/>
<path class="st0" d="M816.48,219h-24.96c-6.89,0-12.52-5.63-12.52-12.52v-24.96c0-6.89,5.63-12.52,12.52-12.52h24.96
	c6.89,0,12.52,5.63,12.52,12.52v24.96C829,213.37,823.37,219,816.48,219z"/>
<path class="st0" d="M894.48,219h-24.96c-6.89,0-12.52-5.63-12.52-12.52v-24.96c0-6.89,5.63-12.52,12.52-12.52h24.96
	c6.89,0,12.52,5.63,12.52,12.52v24.96C907,213.37,901.37,219,894.48,219z"/>
<path class="st0" d="M973.48,219h-24.96c-6.89,0-12.52-5.63-12.52-12.52v-24.96c0-6.89,5.63-12.52,12.52-12.52h24.96
	c6.89,0,12.52,5.63,12.52,12.52v24.96C986,213.37,980.37,219,973.48,219z"/>
<path class="st0" d="M1051.48,219h-24.96c-6.89,0-12.52-5.63-12.52-12.52v-24.96c0-6.89,5.63-12.52,12.52-12.52h24.96
	c6.89,0,12.52,5.63,12.52,12.52v24.96C1064,213.37,1058.37,219,1051.48,219z"/>
<path class="st0" d="M1130.48,219h-24.96c-6.89,0-12.52-5.63-12.52-12.52v-24.96c0-6.89,5.63-12.52,12.52-12.52h24.96
	c6.89,0,12.52,5.63,12.52,12.52v24.96C1143,213.37,1137.37,219,1130.48,219z"/>
<path class="st0" d="M1208.48,219h-24.96c-6.89,0-12.52-5.63-12.52-12.52v-24.96c0-6.89,5.63-12.52,12.52-12.52h24.96
	c6.89,0,12.52,5.63,12.52,12.52v24.96C1221,213.37,1215.37,219,1208.48,219z"/>
<path class="st0" d="M1287.48,219h-24.96c-6.89,0-12.52-5.63-12.52-12.52v-24.96c0-6.89,5.63-12.52,12.52-12.52h24.96
	c6.89,0,12.52,5.63,12.52,12.52v24.96C1300,213.37,1294.37,219,1287.48,219z"/>
<path class="st0" d="M1365.48,219h-24.96c-6.89,0-12.52-5.63-12.52-12.52v-24.96c0-6.89,5.63-12.52,12.52-12.52h24.96
	c6.89,0,12.52,5.63,12.52,12.52v24.96C1378,213.37,1372.37,219,1365.48,219z"/>
<path class="st0" d="M1444.48,219h-24.96c-6.89,0-12.52-5.63-12.52-12.52v-24.96c0-6.89,5.63-12.52,12.52-12.52h24.96
	c6.89,0,12.52,5.63,12.52,12.52v24.96C1457,213.37,1451.37,219,1444.48,219z"/>
<path class="st0" d="M1522.48,219h-24.96c-6.89,0-12.52-5.63-12.52-12.52v-24.96c0-6.89,5.63-12.52,12.52-12.52h24.96
	c6.89,0,12.52,5.63,12.52,12.52v24.96C1535,213.37,1529.37,219,1522.48,219z"/>
<path class="st0" d="M1601.48,219h-24.96c-6.89,0-12.52-5.63-12.52-12.52v-24.96c0-6.89,5.63-12.52,12.52-12.52h24.96
	c6.89,0,12.52,5.63,12.52,12.52v24.96C1614,213.37,1608.37,219,1601.48,219z"/>
<path class="st0" d="M1679.48,219h-24.96c-6.89,0-12.52-5.63-12.52-12.52v-24.96c0-6.89,5.63-12.52,12.52-12.52h24.96
	c6.89,0,12.52,5.63,12.52,12.52v24.96C1692,213.37,1686.37,219,1679.48,219z"/>
<path class="st0" d="M1758.48,219h-24.96c-6.89,0-12.52-5.63-12.52-12.52v-24.96c0-6.89,5.63-12.52,12.52-12.52h24.96
	c6.89,0,12.52,5.63,12.52,12.52v24.96C1771,213.37,1765.37,219,1758.48,219z"/>
<path class="st0" d="M1836.48,219h-24.96c-6.89,0-12.52-5.63-12.52-12.52v-24.96c0-6.89,5.63-12.52,12.52-12.52h24.96
	c6.89,0,12.52,5.63,12.52,12.52v24.96C1849,213.37,1843.37,219,1836.48,219z"/>
<path class="st0" d="M108.48,334H83.52C76.63,334,71,328.37,71,321.48v-24.96c0-6.89,5.63-12.52,12.52-12.52h24.96
	c6.89,0,12.52,5.63,12.52,12.52v24.96C121,328.37,115.37,334,108.48,334z"/>
<path class="st0" d="M187.48,334h-24.96c-6.89,0-12.52-5.63-12.52-12.52v-24.96c0-6.89,5.63-12.52,12.52-12.52h24.96
	c6.89,0,12.52,5.63,12.52,12.52v24.96C200,328.37,194.37,334,187.48,334z"/>
<path class="st0" d="M265.48,334h-24.96c-6.89,0-12.52-5.63-12.52-12.52v-24.96c0-6.89,5.63-12.52,12.52-12.52h24.96
	c6.89,0,12.52,5.63,12.52,12.52v24.96C278,328.37,272.37,334,265.48,334z"/>
<path class="st0" d="M344.48,334h-24.96c-6.89,0-12.52-5.63-12.52-12.52v-24.96c0-6.89,5.63-12.52,12.52-12.52h24.96
	c6.89,0,12.52,5.63,12.52,12.52v24.96C357,328.37,351.37,334,344.48,334z"/>
<path class="st0" d="M422.48,334h-24.96c-6.89,0-12.52-5.63-12.52-12.52v-24.96c0-6.89,5.63-12.52,12.52-12.52h24.96
	c6.89,0,12.52,5.63,12.52,12.52v24.96C435,328.37,429.37,334,422.48,334z"/>
<path class="st0" d="M501.48,334h-24.96c-6.89,0-12.52-5.63-12.52-12.52v-24.96c0-6.89,5.63-12.52,12.52-12.52h24.96
	c6.89,0,12.52,5.63,12.52,12.52v24.96C514,328.37,508.37,334,501.48,334z"/>
<path class="st0" d="M579.48,334h-24.96c-6.89,0-12.52-5.63-12.52-12.52v-24.96c0-6.89,5.63-12.52,12.52-12.52h24.96
	c6.89,0,12.52,5.63,12.52,12.52v24.96C592,328.37,586.37,334,579.48,334z"/>
<path class="st0" d="M658.48,334h-24.96c-6.89,0-12.52-5.63-12.52-12.52v-24.96c0-6.89,5.63-12.52,12.52-12.52h24.96
	c6.89,0,12.52,5.63,12.52,12.52v24.96C671,328.37,665.37,334,658.48,334z"/>
<path class="st0" d="M736.48,334h-24.96c-6.89,0-12.52-5.63-12.52-12.52v-24.96c0-6.89,5.63-12.52,12.52-12.52h24.96
	c6.89,0,12.52,5.63,12.52,12.52v24.96C749,328.37,743.37,334,736.48,334z"/>
<path class="st0" d="M815.48,334h-24.96c-6.89,0-12.52-5.63-12.52-12.52v-24.96c0-6.89,5.63-12.52,12.52-12.52h24.96
	c6.89,0,12.52,5.63,12.52,12.52v24.96C828,328.37,822.37,334,815.48,334z"/>
<path class="st0" d="M893.48,334h-24.96c-6.89,0-12.52-5.63-12.52-12.52v-24.96c0-6.89,5.63-12.52,12.52-12.52h24.96
	c6.89,0,12.52,5.63,12.52,12.52v24.96C906,328.37,900.37,334,893.48,334z"/>
<path class="st0" d="M972.48,334h-24.96c-6.89,0-12.52-5.63-12.52-12.52v-24.96c0-6.89,5.63-12.52,12.52-12.52h24.96
	c6.89,0,12.52,5.63,12.52,12.52v24.96C985,328.37,979.37,334,972.48,334z"/>
<path class="st0" d="M1050.48,334h-24.96c-6.89,0-12.52-5.63-12.52-12.52v-24.96c0-6.89,5.63-12.52,12.52-12.52h24.96
	c6.89,0,12.52,5.63,12.52,12.52v24.96C1063,328.37,1057.37,334,1050.48,334z"/>
<path class="st0" d="M1129.48,334h-24.96c-6.89,0-12.52-5.63-12.52-12.52v-24.96c0-6.89,5.63-12.52,12.52-12.52h24.96
	c6.89,0,12.52,5.63,12.52,12.52v24.96C1142,328.37,1136.37,334,1129.48,334z"/>
<path class="st0" d="M1207.48,334h-24.96c-6.89,0-12.52-5.63-12.52-12.52v-24.96c0-6.89,5.63-12.52,12.52-12.52h24.96
	c6.89,0,12.52,5.63,12.52,12.52v24.96C1220,328.37,1214.37,334,1207.48,334z"/>
<path class="st0" d="M1286.48,334h-24.96c-6.89,0-12.52-5.63-12.52-12.52v-24.96c0-6.89,5.63-12.52,12.52-12.52h24.96
	c6.89,0,12.52,5.63,12.52,12.52v24.96C1299,328.37,1293.37,334,1286.48,334z"/>
<path class="st0" d="M1364.48,334h-24.96c-6.89,0-12.52-5.63-12.52-12.52v-24.96c0-6.89,5.63-12.52,12.52-12.52h24.96
	c6.89,0,12.52,5.63,12.52,12.52v24.96C1377,328.37,1371.37,334,1364.48,334z"/>
<path class="st0" d="M1443.48,334h-24.96c-6.89,0-12.52-5.63-12.52-12.52v-24.96c0-6.89,5.63-12.52,12.52-12.52h24.96
	c6.89,0,12.52,5.63,12.52,12.52v24.96C1456,328.37,1450.37,334,1443.48,334z"/>
<path class="st0" d="M1521.48,334h-24.96c-6.89,0-12.52-5.63-12.52-12.52v-24.96c0-6.89,5.63-12.52,12.52-12.52h24.96
	c6.89,0,12.52,5.63,12.52,12.52v24.96C1534,328.37,1528.37,334,1521.48,334z"/>
<path class="st0" d="M1600.48,334h-24.96c-6.89,0-12.52-5.63-12.52-12.52v-24.96c0-6.89,5.63-12.52,12.52-12.52h24.96
	c6.89,0,12.52,5.63,12.52,12.52v24.96C1613,328.37,1607.37,334,1600.48,334z"/>
<path class="st0" d="M1678.48,334h-24.96c-6.89,0-12.52-5.63-12.52-12.52v-24.96c0-6.89,5.63-12.52,12.52-12.52h24.96
	c6.89,0,12.52,5.63,12.52,12.52v24.96C1691,328.37,1685.37,334,1678.48,334z"/>
<path class="st0" d="M1757.48,334h-24.96c-6.89,0-12.52-5.63-12.52-12.52v-24.96c0-6.89,5.63-12.52,12.52-12.52h24.96
	c6.89,0,12.52,5.63,12.52,12.52v24.96C1770,328.37,1764.37,334,1757.48,334z"/>
<path class="st0" d="M1835.48,334h-24.96c-6.89,0-12.52-5.63-12.52-12.52v-24.96c0-6.89,5.63-12.52,12.52-12.52h24.96
	c6.89,0,12.52,5.63,12.52,12.52v24.96C1848,328.37,1842.37,334,1835.48,334z"/>
<path class="st0" d="M108.48,449H83.52C76.63,449,71,443.37,71,436.48v-24.96c0-6.89,5.63-12.52,12.52-12.52h24.96
	c6.89,0,12.52,5.63,12.52,12.52v24.96C121,443.37,115.37,449,108.48,449z"/>
<path class="st0" d="M187.48,449h-24.96c-6.89,0-12.52-5.63-12.52-12.52v-24.96c0-6.89,5.63-12.52,12.52-12.52h24.96
	c6.89,0,12.52,5.63,12.52,12.52v24.96C200,443.37,194.37,449,187.48,449z"/>
<path class="st0" d="M265.48,449h-24.96c-6.89,0-12.52-5.63-12.52-12.52v-24.96c0-6.89,5.63-12.52,12.52-12.52h24.96
	c6.89,0,12.52,5.63,12.52,12.52v24.96C278,443.37,272.37,449,265.48,449z"/>
<path class="st0" d="M344.48,449h-24.96c-6.89,0-12.52-5.63-12.52-12.52v-24.96c0-6.89,5.63-12.52,12.52-12.52h24.96
	c6.89,0,12.52,5.63,12.52,12.52v24.96C357,443.37,351.37,449,344.48,449z"/>
<path class="st0" d="M422.48,449h-24.96c-6.89,0-12.52-5.63-12.52-12.52v-24.96c0-6.89,5.63-12.52,12.52-12.52h24.96
	c6.89,0,12.52,5.63,12.52,12.52v24.96C435,443.37,429.37,449,422.48,449z"/>
<path class="st0" d="M501.48,449h-24.96c-6.89,0-12.52-5.63-12.52-12.52v-24.96c0-6.89,5.63-12.52,12.52-12.52h24.96
	c6.89,0,12.52,5.63,12.52,12.52v24.96C514,443.37,508.37,449,501.48,449z"/>
<path class="st0" d="M579.48,449h-24.96c-6.89,0-12.52-5.63-12.52-12.52v-24.96c0-6.89,5.63-12.52,12.52-12.52h24.96
	c6.89,0,12.52,5.63,12.52,12.52v24.96C592,443.37,586.37,449,579.48,449z"/>
<path class="st0" d="M658.48,449h-24.96c-6.89,0-12.52-5.63-12.52-12.52v-24.96c0-6.89,5.63-12.52,12.52-12.52h24.96
	c6.89,0,12.52,5.63,12.52,12.52v24.96C671,443.37,665.37,449,658.48,449z"/>
<path class="st0" d="M736.48,449h-24.96c-6.89,0-12.52-5.63-12.52-12.52v-24.96c0-6.89,5.63-12.52,12.52-12.52h24.96
	c6.89,0,12.52,5.63,12.52,12.52v24.96C749,443.37,743.37,449,736.48,449z"/>
<path class="st0" d="M815.48,449h-24.96c-6.89,0-12.52-5.63-12.52-12.52v-24.96c0-6.89,5.63-12.52,12.52-12.52h24.96
	c6.89,0,12.52,5.63,12.52,12.52v24.96C828,443.37,822.37,449,815.48,449z"/>
<path class="st0" d="M893.48,449h-24.96c-6.89,0-12.52-5.63-12.52-12.52v-24.96c0-6.89,5.63-12.52,12.52-12.52h24.96
	c6.89,0,12.52,5.63,12.52,12.52v24.96C906,443.37,900.37,449,893.48,449z"/>
<path class="st0" d="M972.48,449h-24.96c-6.89,0-12.52-5.63-12.52-12.52v-24.96c0-6.89,5.63-12.52,12.52-12.52h24.96
	c6.89,0,12.52,5.63,12.52,12.52v24.96C985,443.37,979.37,449,972.48,449z"/>
<path class="st0" d="M1050.48,449h-24.96c-6.89,0-12.52-5.63-12.52-12.52v-24.96c0-6.89,5.63-12.52,12.52-12.52h24.96
	c6.89,0,12.52,5.63,12.52,12.52v24.96C1063,443.37,1057.37,449,1050.48,449z"/>
<path class="st0" d="M1129.48,449h-24.96c-6.89,0-12.52-5.63-12.52-12.52v-24.96c0-6.89,5.63-12.52,12.52-12.52h24.96
	c6.89,0,12.52,5.63,12.52,12.52v24.96C1142,443.37,1136.37,449,1129.48,449z"/>
<path class="st0" d="M1207.48,449h-24.96c-6.89,0-12.52-5.63-12.52-12.52v-24.96c0-6.89,5.63-12.52,12.52-12.52h24.96
	c6.89,0,12.52,5.63,12.52,12.52v24.96C1220,443.37,1214.37,449,1207.48,449z"/>
<path class="st0" d="M1286.48,449h-24.96c-6.89,0-12.52-5.63-12.52-12.52v-24.96c0-6.89,5.63-12.52,12.52-12.52h24.96
	c6.89,0,12.52,5.63,12.52,12.52v24.96C1299,443.37,1293.37,449,1286.48,449z"/>
<path class="st0" d="M1364.48,449h-24.96c-6.89,0-12.52-5.63-12.52-12.52v-24.96c0-6.89,5.63-12.52,12.52-12.52h24.96
	c6.89,0,12.52,5.63,12.52,12.52v24.96C1377,443.37,1371.37,449,1364.48,449z"/>
<path class="st0" d="M1443.48,449h-24.96c-6.89,0-12.52-5.63-12.52-12.52v-24.96c0-6.89,5.63-12.52,12.52-12.52h24.96
	c6.89,0,12.52,5.63,12.52,12.52v24.96C1456,443.37,1450.37,449,1443.48,449z"/>
<path class="st0" d="M1521.48,449h-24.96c-6.89,0-12.52-5.63-12.52-12.52v-24.96c0-6.89,5.63-12.52,12.52-12.52h24.96
	c6.89,0,12.52,5.63,12.52,12.52v24.96C1534,443.37,1528.37,449,1521.48,449z"/>
<path class="st0" d="M1600.48,449h-24.96c-6.89,0-12.52-5.63-12.52-12.52v-24.96c0-6.89,5.63-12.52,12.52-12.52h24.96
	c6.89,0,12.52,5.63,12.52,12.52v24.96C1613,443.37,1607.37,449,1600.48,449z"/>
<path class="st0" d="M1678.48,449h-24.96c-6.89,0-12.52-5.63-12.52-12.52v-24.96c0-6.89,5.63-12.52,12.52-12.52h24.96
	c6.89,0,12.52,5.63,12.52,12.52v24.96C1691,443.37,1685.37,449,1678.48,449z"/>
<path class="st0" d="M1757.48,449h-24.96c-6.89,0-12.52-5.63-12.52-12.52v-24.96c0-6.89,5.63-12.52,12.52-12.52h24.96
	c6.89,0,12.52,5.63,12.52,12.52v24.96C1770,443.37,1764.37,449,1757.48,449z"/>
<path class="st0" d="M1835.48,449h-24.96c-6.89,0-12.52-5.63-12.52-12.52v-24.96c0-6.89,5.63-12.52,12.52-12.52h24.96
	c6.89,0,12.52,5.63,12.52,12.52v24.96C1848,443.37,1842.37,449,1835.48,449z"/>
<path class="st0" d="M109.48,565H84.52C77.63,565,72,559.37,72,552.48v-24.96c0-6.89,5.63-12.52,12.52-12.52h24.96
	c6.89,0,12.52,5.63,12.52,12.52v24.96C122,559.37,116.37,565,109.48,565z"/>
<path class="st0" d="M188.48,565h-24.96c-6.89,0-12.52-5.63-12.52-12.52v-24.96c0-6.89,5.63-12.52,12.52-12.52h24.96
	c6.89,0,12.52,5.63,12.52,12.52v24.96C201,559.37,195.37,565,188.48,565z"/>
<path class="st0" d="M266.48,565h-24.96c-6.89,0-12.52-5.63-12.52-12.52v-24.96c0-6.89,5.63-12.52,12.52-12.52h24.96
	c6.89,0,12.52,5.63,12.52,12.52v24.96C279,559.37,273.37,565,266.48,565z"/>
<path class="st0" d="M345.48,565h-24.96c-6.89,0-12.52-5.63-12.52-12.52v-24.96c0-6.89,5.63-12.52,12.52-12.52h24.96
	c6.89,0,12.52,5.63,12.52,12.52v24.96C358,559.37,352.37,565,345.48,565z"/>
<path class="st0" d="M423.48,565h-24.96c-6.89,0-12.52-5.63-12.52-12.52v-24.96c0-6.89,5.63-12.52,12.52-12.52h24.96
	c6.89,0,12.52,5.63,12.52,12.52v24.96C436,559.37,430.37,565,423.48,565z"/>
<path class="st0" d="M502.48,565h-24.96c-6.89,0-12.52-5.63-12.52-12.52v-24.96c0-6.89,5.63-12.52,12.52-12.52h24.96
	c6.89,0,12.52,5.63,12.52,12.52v24.96C515,559.37,509.37,565,502.48,565z"/>
<path class="st0" d="M580.48,565h-24.96c-6.89,0-12.52-5.63-12.52-12.52v-24.96c0-6.89,5.63-12.52,12.52-12.52h24.96
	c6.89,0,12.52,5.63,12.52,12.52v24.96C593,559.37,587.37,565,580.48,565z"/>
<path class="st0" d="M659.48,565h-24.96c-6.89,0-12.52-5.63-12.52-12.52v-24.96c0-6.89,5.63-12.52,12.52-12.52h24.96
	c6.89,0,12.52,5.63,12.52,12.52v24.96C672,559.37,666.37,565,659.48,565z"/>
<path class="st0" d="M737.48,565h-24.96c-6.89,0-12.52-5.63-12.52-12.52v-24.96c0-6.89,5.63-12.52,12.52-12.52h24.96
	c6.89,0,12.52,5.63,12.52,12.52v24.96C750,559.37,744.37,565,737.48,565z"/>
<path class="st0" d="M816.48,565h-24.96c-6.89,0-12.52-5.63-12.52-12.52v-24.96c0-6.89,5.63-12.52,12.52-12.52h24.96
	c6.89,0,12.52,5.63,12.52,12.52v24.96C829,559.37,823.37,565,816.48,565z"/>
<path class="st0" d="M894.48,565h-24.96c-6.89,0-12.52-5.63-12.52-12.52v-24.96c0-6.89,5.63-12.52,12.52-12.52h24.96
	c6.89,0,12.52,5.63,12.52,12.52v24.96C907,559.37,901.37,565,894.48,565z"/>
<path class="st0" d="M973.48,565h-24.96c-6.89,0-12.52-5.63-12.52-12.52v-24.96c0-6.89,5.63-12.52,12.52-12.52h24.96
	c6.89,0,12.52,5.63,12.52,12.52v24.96C986,559.37,980.37,565,973.48,565z"/>
<path class="st0" d="M1051.48,565h-24.96c-6.89,0-12.52-5.63-12.52-12.52v-24.96c0-6.89,5.63-12.52,12.52-12.52h24.96
	c6.89,0,12.52,5.63,12.52,12.52v24.96C1064,559.37,1058.37,565,1051.48,565z"/>
<path class="st0" d="M1130.48,565h-24.96c-6.89,0-12.52-5.63-12.52-12.52v-24.96c0-6.89,5.63-12.52,12.52-12.52h24.96
	c6.89,0,12.52,5.63,12.52,12.52v24.96C1143,559.37,1137.37,565,1130.48,565z"/>
<path class="st0" d="M1208.48,565h-24.96c-6.89,0-12.52-5.63-12.52-12.52v-24.96c0-6.89,5.63-12.52,12.52-12.52h24.96
	c6.89,0,12.52,5.63,12.52,12.52v24.96C1221,559.37,1215.37,565,1208.48,565z"/>
<path class="st0" d="M1287.48,565h-24.96c-6.89,0-12.52-5.63-12.52-12.52v-24.96c0-6.89,5.63-12.52,12.52-12.52h24.96
	c6.89,0,12.52,5.63,12.52,12.52v24.96C1300,559.37,1294.37,565,1287.48,565z"/>
<path class="st0" d="M1365.48,565h-24.96c-6.89,0-12.52-5.63-12.52-12.52v-24.96c0-6.89,5.63-12.52,12.52-12.52h24.96
	c6.89,0,12.52,5.63,12.52,12.52v24.96C1378,559.37,1372.37,565,1365.48,565z"/>
<path class="st0" d="M1444.48,565h-24.96c-6.89,0-12.52-5.63-12.52-12.52v-24.96c0-6.89,5.63-12.52,12.52-12.52h24.96
	c6.89,0,12.52,5.63,12.52,12.52v24.96C1457,559.37,1451.37,565,1444.48,565z"/>
<path class="st0" d="M1522.48,565h-24.96c-6.89,0-12.52-5.63-12.52-12.52v-24.96c0-6.89,5.63-12.52,12.52-12.52h24.96
	c6.89,0,12.52,5.63,12.52,12.52v24.96C1535,559.37,1529.37,565,1522.48,565z"/>
<path class="st0" d="M1601.48,565h-24.96c-6.89,0-12.52-5.63-12.52-12.52v-24.96c0-6.89,5.63-12.52,12.52-12.52h24.96
	c6.89,0,12.52,5.63,12.52,12.52v24.96C1614,559.37,1608.37,565,1601.48,565z"/>
<path class="st0" d="M1679.48,565h-24.96c-6.89,0-12.52-5.63-12.52-12.52v-24.96c0-6.89,5.63-12.52,12.52-12.52h24.96
	c6.89,0,12.52,5.63,12.52,12.52v24.96C1692,559.37,1686.37,565,1679.48,565z"/>
<path class="st0" d="M1758.48,565h-24.96c-6.89,0-12.52-5.63-12.52-12.52v-24.96c0-6.89,5.63-12.52,12.52-12.52h24.96
	c6.89,0,12.52,5.63,12.52,12.52v24.96C1771,559.37,1765.37,565,1758.48,565z"/>
<path class="st0" d="M1836.48,565h-24.96c-6.89,0-12.52-5.63-12.52-12.52v-24.96c0-6.89,5.63-12.52,12.52-12.52h24.96
	c6.89,0,12.52,5.63,12.52,12.52v24.96C1849,559.37,1843.37,565,1836.48,565z"/>
<path class="st0" d="M109.48,680H84.52C77.63,680,72,674.37,72,667.48v-24.96c0-6.89,5.63-12.52,12.52-12.52h24.96
	c6.89,0,12.52,5.63,12.52,12.52v24.96C122,674.37,116.37,680,109.48,680z"/>
<path class="st0" d="M188.48,680h-24.96c-6.89,0-12.52-5.63-12.52-12.52v-24.96c0-6.89,5.63-12.52,12.52-12.52h24.96
	c6.89,0,12.52,5.63,12.52,12.52v24.96C201,674.37,195.37,680,188.48,680z"/>
<path class="st0" d="M266.48,680h-24.96c-6.89,0-12.52-5.63-12.52-12.52v-24.96c0-6.89,5.63-12.52,12.52-12.52h24.96
	c6.89,0,12.52,5.63,12.52,12.52v24.96C279,674.37,273.37,680,266.48,680z"/>
<path class="st0" d="M345.48,680h-24.96c-6.89,0-12.52-5.63-12.52-12.52v-24.96c0-6.89,5.63-12.52,12.52-12.52h24.96
	c6.89,0,12.52,5.63,12.52,12.52v24.96C358,674.37,352.37,680,345.48,680z"/>
<path class="st0" d="M423.48,680h-24.96c-6.89,0-12.52-5.63-12.52-12.52v-24.96c0-6.89,5.63-12.52,12.52-12.52h24.96
	c6.89,0,12.52,5.63,12.52,12.52v24.96C436,674.37,430.37,680,423.48,680z"/>
<path class="st0" d="M502.48,680h-24.96c-6.89,0-12.52-5.63-12.52-12.52v-24.96c0-6.89,5.63-12.52,12.52-12.52h24.96
	c6.89,0,12.52,5.63,12.52,12.52v24.96C515,674.37,509.37,680,502.48,680z"/>
<path class="st0" d="M580.48,680h-24.96c-6.89,0-12.52-5.63-12.52-12.52v-24.96c0-6.89,5.63-12.52,12.52-12.52h24.96
	c6.89,0,12.52,5.63,12.52,12.52v24.96C593,674.37,587.37,680,580.48,680z"/>
<path class="st0" d="M659.48,680h-24.96c-6.89,0-12.52-5.63-12.52-12.52v-24.96c0-6.89,5.63-12.52,12.52-12.52h24.96
	c6.89,0,12.52,5.63,12.52,12.52v24.96C672,674.37,666.37,680,659.48,680z"/>
<path class="st0" d="M737.48,680h-24.96c-6.89,0-12.52-5.63-12.52-12.52v-24.96c0-6.89,5.63-12.52,12.52-12.52h24.96
	c6.89,0,12.52,5.63,12.52,12.52v24.96C750,674.37,744.37,680,737.48,680z"/>
<path class="st0" d="M816.48,680h-24.96c-6.89,0-12.52-5.63-12.52-12.52v-24.96c0-6.89,5.63-12.52,12.52-12.52h24.96
	c6.89,0,12.52,5.63,12.52,12.52v24.96C829,674.37,823.37,680,816.48,680z"/>
<path class="st0" d="M894.48,680h-24.96c-6.89,0-12.52-5.63-12.52-12.52v-24.96c0-6.89,5.63-12.52,12.52-12.52h24.96
	c6.89,0,12.52,5.63,12.52,12.52v24.96C907,674.37,901.37,680,894.48,680z"/>
<path class="st0" d="M973.48,680h-24.96c-6.89,0-12.52-5.63-12.52-12.52v-24.96c0-6.89,5.63-12.52,12.52-12.52h24.96
	c6.89,0,12.52,5.63,12.52,12.52v24.96C986,674.37,980.37,680,973.48,680z"/>
<path class="st0" d="M1051.48,680h-24.96c-6.89,0-12.52-5.63-12.52-12.52v-24.96c0-6.89,5.63-12.52,12.52-12.52h24.96
	c6.89,0,12.52,5.63,12.52,12.52v24.96C1064,674.37,1058.37,680,1051.48,680z"/>
<path class="st0" d="M1130.48,680h-24.96c-6.89,0-12.52-5.63-12.52-12.52v-24.96c0-6.89,5.63-12.52,12.52-12.52h24.96
	c6.89,0,12.52,5.63,12.52,12.52v24.96C1143,674.37,1137.37,680,1130.48,680z"/>
<path class="st0" d="M1208.48,680h-24.96c-6.89,0-12.52-5.63-12.52-12.52v-24.96c0-6.89,5.63-12.52,12.52-12.52h24.96
	c6.89,0,12.52,5.63,12.52,12.52v24.96C1221,674.37,1215.37,680,1208.48,680z"/>
<path class="st0" d="M1287.48,680h-24.96c-6.89,0-12.52-5.63-12.52-12.52v-24.96c0-6.89,5.63-12.52,12.52-12.52h24.96
	c6.89,0,12.52,5.63,12.52,12.52v24.96C1300,674.37,1294.37,680,1287.48,680z"/>
<path class="st0" d="M1365.48,680h-24.96c-6.89,0-12.52-5.63-12.52-12.52v-24.96c0-6.89,5.63-12.52,12.52-12.52h24.96
	c6.89,0,12.52,5.63,12.52,12.52v24.96C1378,674.37,1372.37,680,1365.48,680z"/>
<path class="st0" d="M1444.48,680h-24.96c-6.89,0-12.52-5.63-12.52-12.52v-24.96c0-6.89,5.63-12.52,12.52-12.52h24.96
	c6.89,0,12.52,5.63,12.52,12.52v24.96C1457,674.37,1451.37,680,1444.48,680z"/>
<path class="st0" d="M1522.48,680h-24.96c-6.89,0-12.52-5.63-12.52-12.52v-24.96c0-6.89,5.63-12.52,12.52-12.52h24.96
	c6.89,0,12.52,5.63,12.52,12.52v24.96C1535,674.37,1529.37,680,1522.48,680z"/>
<path class="st0" d="M1601.48,680h-24.96c-6.89,0-12.52-5.63-12.52-12.52v-24.96c0-6.89,5.63-12.52,12.52-12.52h24.96
	c6.89,0,12.52,5.63,12.52,12.52v24.96C1614,674.37,1608.37,680,1601.48,680z"/>
<path class="st0" d="M1679.48,680h-24.96c-6.89,0-12.52-5.63-12.52-12.52v-24.96c0-6.89,5.63-12.52,12.52-12.52h24.96
	c6.89,0,12.52,5.63,12.52,12.52v24.96C1692,674.37,1686.37,680,1679.48,680z"/>
<path class="st0" d="M1758.48,680h-24.96c-6.89,0-12.52-5.63-12.52-12.52v-24.96c0-6.89,5.63-12.52,12.52-12.52h24.96
	c6.89,0,12.52,5.63,12.52,12.52v24.96C1771,674.37,1765.37,680,1758.48,680z"/>
<path class="st0" d="M1836.48,680h-24.96c-6.89,0-12.52-5.63-12.52-12.52v-24.96c0-6.89,5.63-12.52,12.52-12.52h24.96
	c6.89,0,12.52,5.63,12.52,12.52v24.96C1849,674.37,1843.37,680,1836.48,680z"/>
<path class="st0" d="M108.48,795H83.52C76.63,795,71,789.37,71,782.48v-24.96c0-6.89,5.63-12.52,12.52-12.52h24.96
	c6.89,0,12.52,5.63,12.52,12.52v24.96C121,789.37,115.37,795,108.48,795z"/>
<path class="st0" d="M187.48,795h-24.96c-6.89,0-12.52-5.63-12.52-12.52v-24.96c0-6.89,5.63-12.52,12.52-12.52h24.96
	c6.89,0,12.52,5.63,12.52,12.52v24.96C200,789.37,194.37,795,187.48,795z"/>
<path class="st0" d="M265.48,795h-24.96c-6.89,0-12.52-5.63-12.52-12.52v-24.96c0-6.89,5.63-12.52,12.52-12.52h24.96
	c6.89,0,12.52,5.63,12.52,12.52v24.96C278,789.37,272.37,795,265.48,795z"/>
<path class="st0" d="M344.48,795h-24.96c-6.89,0-12.52-5.63-12.52-12.52v-24.96c0-6.89,5.63-12.52,12.52-12.52h24.96
	c6.89,0,12.52,5.63,12.52,12.52v24.96C357,789.37,351.37,795,344.48,795z"/>
<path class="st0" d="M422.48,795h-24.96c-6.89,0-12.52-5.63-12.52-12.52v-24.96c0-6.89,5.63-12.52,12.52-12.52h24.96
	c6.89,0,12.52,5.63,12.52,12.52v24.96C435,789.37,429.37,795,422.48,795z"/>
<path class="st0" d="M501.48,795h-24.96c-6.89,0-12.52-5.63-12.52-12.52v-24.96c0-6.89,5.63-12.52,12.52-12.52h24.96
	c6.89,0,12.52,5.63,12.52,12.52v24.96C514,789.37,508.37,795,501.48,795z"/>
<path class="st0" d="M579.48,795h-24.96c-6.89,0-12.52-5.63-12.52-12.52v-24.96c0-6.89,5.63-12.52,12.52-12.52h24.96
	c6.89,0,12.52,5.63,12.52,12.52v24.96C592,789.37,586.37,795,579.48,795z"/>
<path class="st0" d="M658.48,795h-24.96c-6.89,0-12.52-5.63-12.52-12.52v-24.96c0-6.89,5.63-12.52,12.52-12.52h24.96
	c6.89,0,12.52,5.63,12.52,12.52v24.96C671,789.37,665.37,795,658.48,795z"/>
<path class="st0" d="M736.48,795h-24.96c-6.89,0-12.52-5.63-12.52-12.52v-24.96c0-6.89,5.63-12.52,12.52-12.52h24.96
	c6.89,0,12.52,5.63,12.52,12.52v24.96C749,789.37,743.37,795,736.48,795z"/>
<path class="st0" d="M815.48,795h-24.96c-6.89,0-12.52-5.63-12.52-12.52v-24.96c0-6.89,5.63-12.52,12.52-12.52h24.96
	c6.89,0,12.52,5.63,12.52,12.52v24.96C828,789.37,822.37,795,815.48,795z"/>
<path class="st0" d="M893.48,795h-24.96c-6.89,0-12.52-5.63-12.52-12.52v-24.96c0-6.89,5.63-12.52,12.52-12.52h24.96
	c6.89,0,12.52,5.63,12.52,12.52v24.96C906,789.37,900.37,795,893.48,795z"/>
<path class="st0" d="M972.48,795h-24.96c-6.89,0-12.52-5.63-12.52-12.52v-24.96c0-6.89,5.63-12.52,12.52-12.52h24.96
	c6.89,0,12.52,5.63,12.52,12.52v24.96C985,789.37,979.37,795,972.48,795z"/>
<path class="st0" d="M1050.48,795h-24.96c-6.89,0-12.52-5.63-12.52-12.52v-24.96c0-6.89,5.63-12.52,12.52-12.52h24.96
	c6.89,0,12.52,5.63,12.52,12.52v24.96C1063,789.37,1057.37,795,1050.48,795z"/>
<path class="st0" d="M1129.48,795h-24.96c-6.89,0-12.52-5.63-12.52-12.52v-24.96c0-6.89,5.63-12.52,12.52-12.52h24.96
	c6.89,0,12.52,5.63,12.52,12.52v24.96C1142,789.37,1136.37,795,1129.48,795z"/>
<path class="st0" d="M1207.48,795h-24.96c-6.89,0-12.52-5.63-12.52-12.52v-24.96c0-6.89,5.63-12.52,12.52-12.52h24.96
	c6.89,0,12.52,5.63,12.52,12.52v24.96C1220,789.37,1214.37,795,1207.48,795z"/>
<path class="st0" d="M1286.48,795h-24.96c-6.89,0-12.52-5.63-12.52-12.52v-24.96c0-6.89,5.63-12.52,12.52-12.52h24.96
	c6.89,0,12.52,5.63,12.52,12.52v24.96C1299,789.37,1293.37,795,1286.48,795z"/>
<path class="st0" d="M1364.48,795h-24.96c-6.89,0-12.52-5.63-12.52-12.52v-24.96c0-6.89,5.63-12.52,12.52-12.52h24.96
	c6.89,0,12.52,5.63,12.52,12.52v24.96C1377,789.37,1371.37,795,1364.48,795z"/>
<path class="st0" d="M1443.48,795h-24.96c-6.89,0-12.52-5.63-12.52-12.52v-24.96c0-6.89,5.63-12.52,12.52-12.52h24.96
	c6.89,0,12.52,5.63,12.52,12.52v24.96C1456,789.37,1450.37,795,1443.48,795z"/>
<path class="st0" d="M1521.48,795h-24.96c-6.89,0-12.52-5.63-12.52-12.52v-24.96c0-6.89,5.63-12.52,12.52-12.52h24.96
	c6.89,0,12.52,5.63,12.52,12.52v24.96C1534,789.37,1528.37,795,1521.48,795z"/>
<path class="st0" d="M1600.48,795h-24.96c-6.89,0-12.52-5.63-12.52-12.52v-24.96c0-6.89,5.63-12.52,12.52-12.52h24.96
	c6.89,0,12.52,5.63,12.52,12.52v24.96C1613,789.37,1607.37,795,1600.48,795z"/>
<path class="st0" d="M1678.48,795h-24.96c-6.89,0-12.52-5.63-12.52-12.52v-24.96c0-6.89,5.63-12.52,12.52-12.52h24.96
	c6.89,0,12.52,5.63,12.52,12.52v24.96C1691,789.37,1685.37,795,1678.48,795z"/>
<path class="st0" d="M1757.48,795h-24.96c-6.89,0-12.52-5.63-12.52-12.52v-24.96c0-6.89,5.63-12.52,12.52-12.52h24.96
	c6.89,0,12.52,5.63,12.52,12.52v24.96C1770,789.37,1764.37,795,1757.48,795z"/>
<path class="st0" d="M1835.48,795h-24.96c-6.89,0-12.52-5.63-12.52-12.52v-24.96c0-6.89,5.63-12.52,12.52-12.52h24.96
	c6.89,0,12.52,5.63,12.52,12.52v24.96C1848,789.37,1842.37,795,1835.48,795z"/>
<path class="st0" d="M108.48,910H83.52C76.63,910,71,904.37,71,897.48v-24.96c0-6.89,5.63-12.52,12.52-12.52h24.96
	c6.89,0,12.52,5.63,12.52,12.52v24.96C121,904.37,115.37,910,108.48,910z"/>
<path class="st0" d="M187.48,910h-24.96c-6.89,0-12.52-5.63-12.52-12.52v-24.96c0-6.89,5.63-12.52,12.52-12.52h24.96
	c6.89,0,12.52,5.63,12.52,12.52v24.96C200,904.37,194.37,910,187.48,910z"/>
<path class="st0" d="M265.48,910h-24.96c-6.89,0-12.52-5.63-12.52-12.52v-24.96c0-6.89,5.63-12.52,12.52-12.52h24.96
	c6.89,0,12.52,5.63,12.52,12.52v24.96C278,904.37,272.37,910,265.48,910z"/>
<path class="st0" d="M344.48,910h-24.96c-6.89,0-12.52-5.63-12.52-12.52v-24.96c0-6.89,5.63-12.52,12.52-12.52h24.96
	c6.89,0,12.52,5.63,12.52,12.52v24.96C357,904.37,351.37,910,344.48,910z"/>
<path class="st0" d="M422.48,910h-24.96c-6.89,0-12.52-5.63-12.52-12.52v-24.96c0-6.89,5.63-12.52,12.52-12.52h24.96
	c6.89,0,12.52,5.63,12.52,12.52v24.96C435,904.37,429.37,910,422.48,910z"/>
<path class="st0" d="M501.48,910h-24.96c-6.89,0-12.52-5.63-12.52-12.52v-24.96c0-6.89,5.63-12.52,12.52-12.52h24.96
	c6.89,0,12.52,5.63,12.52,12.52v24.96C514,904.37,508.37,910,501.48,910z"/>
<path class="st0" d="M579.48,910h-24.96c-6.89,0-12.52-5.63-12.52-12.52v-24.96c0-6.89,5.63-12.52,12.52-12.52h24.96
	c6.89,0,12.52,5.63,12.52,12.52v24.96C592,904.37,586.37,910,579.48,910z"/>
<path class="st0" d="M658.48,910h-24.96c-6.89,0-12.52-5.63-12.52-12.52v-24.96c0-6.89,5.63-12.52,12.52-12.52h24.96
	c6.89,0,12.52,5.63,12.52,12.52v24.96C671,904.37,665.37,910,658.48,910z"/>
<path class="st0" d="M736.48,910h-24.96c-6.89,0-12.52-5.63-12.52-12.52v-24.96c0-6.89,5.63-12.52,12.52-12.52h24.96
	c6.89,0,12.52,5.63,12.52,12.52v24.96C749,904.37,743.37,910,736.48,910z"/>
<path class="st0" d="M815.48,910h-24.96c-6.89,0-12.52-5.63-12.52-12.52v-24.96c0-6.89,5.63-12.52,12.52-12.52h24.96
	c6.89,0,12.52,5.63,12.52,12.52v24.96C828,904.37,822.37,910,815.48,910z"/>
<path class="st0" d="M893.48,910h-24.96c-6.89,0-12.52-5.63-12.52-12.52v-24.96c0-6.89,5.63-12.52,12.52-12.52h24.96
	c6.89,0,12.52,5.63,12.52,12.52v24.96C906,904.37,900.37,910,893.48,910z"/>
<path class="st0" d="M972.48,910h-24.96c-6.89,0-12.52-5.63-12.52-12.52v-24.96c0-6.89,5.63-12.52,12.52-12.52h24.96
	c6.89,0,12.52,5.63,12.52,12.52v24.96C985,904.37,979.37,910,972.48,910z"/>
<path class="st0" d="M1050.48,910h-24.96c-6.89,0-12.52-5.63-12.52-12.52v-24.96c0-6.89,5.63-12.52,12.52-12.52h24.96
	c6.89,0,12.52,5.63,12.52,12.52v24.96C1063,904.37,1057.37,910,1050.48,910z"/>
<path class="st0" d="M1129.48,910h-24.96c-6.89,0-12.52-5.63-12.52-12.52v-24.96c0-6.89,5.63-12.52,12.52-12.52h24.96
	c6.89,0,12.52,5.63,12.52,12.52v24.96C1142,904.37,1136.37,910,1129.48,910z"/>
<path class="st0" d="M1207.48,910h-24.96c-6.89,0-12.52-5.63-12.52-12.52v-24.96c0-6.89,5.63-12.52,12.52-12.52h24.96
	c6.89,0,12.52,5.63,12.52,12.52v24.96C1220,904.37,1214.37,910,1207.48,910z"/>
<path class="st0" d="M1286.48,910h-24.96c-6.89,0-12.52-5.63-12.52-12.52v-24.96c0-6.89,5.63-12.52,12.52-12.52h24.96
	c6.89,0,12.52,5.63,12.52,12.52v24.96C1299,904.37,1293.37,910,1286.48,910z"/>
<path class="st0" d="M1364.48,910h-24.96c-6.89,0-12.52-5.63-12.52-12.52v-24.96c0-6.89,5.63-12.52,12.52-12.52h24.96
	c6.89,0,12.52,5.63,12.52,12.52v24.96C1377,904.37,1371.37,910,1364.48,910z"/>
<path class="st0" d="M1443.48,910h-24.96c-6.89,0-12.52-5.63-12.52-12.52v-24.96c0-6.89,5.63-12.52,12.52-12.52h24.96
	c6.89,0,12.52,5.63,12.52,12.52v24.96C1456,904.37,1450.37,910,1443.48,910z"/>
<path class="st0" d="M1521.48,910h-24.96c-6.89,0-12.52-5.63-12.52-12.52v-24.96c0-6.89,5.63-12.52,12.52-12.52h24.96
	c6.89,0,12.52,5.63,12.52,12.52v24.96C1534,904.37,1528.37,910,1521.48,910z"/>
<path class="st0" d="M1600.48,910h-24.96c-6.89,0-12.52-5.63-12.52-12.52v-24.96c0-6.89,5.63-12.52,12.52-12.52h24.96
	c6.89,0,12.52,5.63,12.52,12.52v24.96C1613,904.37,1607.37,910,1600.48,910z"/>
<path class="st0" d="M1678.48,910h-24.96c-6.89,0-12.52-5.63-12.52-12.52v-24.96c0-6.89,5.63-12.52,12.52-12.52h24.96
	c6.89,0,12.52,5.63,12.52,12.52v24.96C1691,904.37,1685.37,910,1678.48,910z"/>
<path class="st0" d="M1757.48,910h-24.96c-6.89,0-12.52-5.63-12.52-12.52v-24.96c0-6.89,5.63-12.52,12.52-12.52h24.96
	c6.89,0,12.52,5.63,12.52,12.52v24.96C1770,904.37,1764.37,910,1757.48,910z"/>
<path class="st0" d="M1835.48,910h-24.96c-6.89,0-12.52-5.63-12.52-12.52v-24.96c0-6.89,5.63-12.52,12.52-12.52h24.96
	c6.89,0,12.52,5.63,12.52,12.52v24.96C1848,904.37,1842.37,910,1835.48,910z"/>
<path class="st0" d="M109.48,1026H84.52c-6.89,0-12.52-5.63-12.52-12.52v-24.96c0-6.89,5.63-12.52,12.52-12.52h24.96
	c6.89,0,12.52,5.63,12.52,12.52v24.96C122,1020.37,116.37,1026,109.48,1026z"/>
<path class="st0" d="M188.48,1026h-24.96c-6.89,0-12.52-5.63-12.52-12.52v-24.96c0-6.89,5.63-12.52,12.52-12.52h24.96
	c6.89,0,12.52,5.63,12.52,12.52v24.96C201,1020.37,195.37,1026,188.48,1026z"/>
<path class="st0" d="M266.48,1026h-24.96c-6.89,0-12.52-5.63-12.52-12.52v-24.96c0-6.89,5.63-12.52,12.52-12.52h24.96
	c6.89,0,12.52,5.63,12.52,12.52v24.96C279,1020.37,273.37,1026,266.48,1026z"/>
<path class="st0" d="M345.48,1026h-24.96c-6.89,0-12.52-5.63-12.52-12.52v-24.96c0-6.89,5.63-12.52,12.52-12.52h24.96
	c6.89,0,12.52,5.63,12.52,12.52v24.96C358,1020.37,352.37,1026,345.48,1026z"/>
<path class="st0" d="M423.48,1026h-24.96c-6.89,0-12.52-5.63-12.52-12.52v-24.96c0-6.89,5.63-12.52,12.52-12.52h24.96
	c6.89,0,12.52,5.63,12.52,12.52v24.96C436,1020.37,430.37,1026,423.48,1026z"/>
<path class="st0" d="M502.48,1026h-24.96c-6.89,0-12.52-5.63-12.52-12.52v-24.96c0-6.89,5.63-12.52,12.52-12.52h24.96
	c6.89,0,12.52,5.63,12.52,12.52v24.96C515,1020.37,509.37,1026,502.48,1026z"/>
<path class="st0" d="M580.48,1026h-24.96c-6.89,0-12.52-5.63-12.52-12.52v-24.96c0-6.89,5.63-12.52,12.52-12.52h24.96
	c6.89,0,12.52,5.63,12.52,12.52v24.96C593,1020.37,587.37,1026,580.48,1026z"/>
<path class="st0" d="M659.48,1026h-24.96c-6.89,0-12.52-5.63-12.52-12.52v-24.96c0-6.89,5.63-12.52,12.52-12.52h24.96
	c6.89,0,12.52,5.63,12.52,12.52v24.96C672,1020.37,666.37,1026,659.48,1026z"/>
<path class="st0" d="M737.48,1026h-24.96c-6.89,0-12.52-5.63-12.52-12.52v-24.96c0-6.89,5.63-12.52,12.52-12.52h24.96
	c6.89,0,12.52,5.63,12.52,12.52v24.96C750,1020.37,744.37,1026,737.48,1026z"/>
<path class="st0" d="M816.48,1026h-24.96c-6.89,0-12.52-5.63-12.52-12.52v-24.96c0-6.89,5.63-12.52,12.52-12.52h24.96
	c6.89,0,12.52,5.63,12.52,12.52v24.96C829,1020.37,823.37,1026,816.48,1026z"/>
<path class="st0" d="M894.48,1026h-24.96c-6.89,0-12.52-5.63-12.52-12.52v-24.96c0-6.89,5.63-12.52,12.52-12.52h24.96
	c6.89,0,12.52,5.63,12.52,12.52v24.96C907,1020.37,901.37,1026,894.48,1026z"/>
<path class="st0" d="M973.48,1026h-24.96c-6.89,0-12.52-5.63-12.52-12.52v-24.96c0-6.89,5.63-12.52,12.52-12.52h24.96
	c6.89,0,12.52,5.63,12.52,12.52v24.96C986,1020.37,980.37,1026,973.48,1026z"/>
<path class="st0" d="M1051.48,1026h-24.96c-6.89,0-12.52-5.63-12.52-12.52v-24.96c0-6.89,5.63-12.52,12.52-12.52h24.96
	c6.89,0,12.52,5.63,12.52,12.52v24.96C1064,1020.37,1058.37,1026,1051.48,1026z"/>
<path class="st0" d="M1130.48,1026h-24.96c-6.89,0-12.52-5.63-12.52-12.52v-24.96c0-6.89,5.63-12.52,12.52-12.52h24.96
	c6.89,0,12.52,5.63,12.52,12.52v24.96C1143,1020.37,1137.37,1026,1130.48,1026z"/>
<path class="st0" d="M1208.48,1026h-24.96c-6.89,0-12.52-5.63-12.52-12.52v-24.96c0-6.89,5.63-12.52,12.52-12.52h24.96
	c6.89,0,12.52,5.63,12.52,12.52v24.96C1221,1020.37,1215.37,1026,1208.48,1026z"/>
<path class="st0" d="M1287.48,1026h-24.96c-6.89,0-12.52-5.63-12.52-12.52v-24.96c0-6.89,5.63-12.52,12.52-12.52h24.96
	c6.89,0,12.52,5.63,12.52,12.52v24.96C1300,1020.37,1294.37,1026,1287.48,1026z"/>
<path class="st0" d="M1365.48,1026h-24.96c-6.89,0-12.52-5.63-12.52-12.52v-24.96c0-6.89,5.63-12.52,12.52-12.52h24.96
	c6.89,0,12.52,5.63,12.52,12.52v24.96C1378,1020.37,1372.37,1026,1365.48,1026z"/>
<path class="st0" d="M1444.48,1026h-24.96c-6.89,0-12.52-5.63-12.52-12.52v-24.96c0-6.89,5.63-12.52,12.52-12.52h24.96
	c6.89,0,12.52,5.63,12.52,12.52v24.96C1457,1020.37,1451.37,1026,1444.48,1026z"/>
<path class="st0" d="M1522.48,1026h-24.96c-6.89,0-12.52-5.63-12.52-12.52v-24.96c0-6.89,5.63-12.52,12.52-12.52h24.96
	c6.89,0,12.52,5.63,12.52,12.52v24.96C1535,1020.37,1529.37,1026,1522.48,1026z"/>
<path class="st0" d="M1601.48,1026h-24.96c-6.89,0-12.52-5.63-12.52-12.52v-24.96c0-6.89,5.63-12.52,12.52-12.52h24.96
	c6.89,0,12.52,5.63,12.52,12.52v24.96C1614,1020.37,1608.37,1026,1601.48,1026z"/>
<path class="st0" d="M1679.48,1026h-24.96c-6.89,0-12.52-5.63-12.52-12.52v-24.96c0-6.89,5.63-12.52,12.52-12.52h24.96
	c6.89,0,12.52,5.63,12.52,12.52v24.96C1692,1020.37,1686.37,1026,1679.48,1026z"/>
<path class="st0" d="M1758.48,1026h-24.96c-6.89,0-12.52-5.63-12.52-12.52v-24.96c0-6.89,5.63-12.52,12.52-12.52h24.96
	c6.89,0,12.52,5.63,12.52,12.52v24.96C1771,1020.37,1765.37,1026,1758.48,1026z"/>
<path class="st0" d="M1836.48,1026h-24.96c-6.89,0-12.52-5.63-12.52-12.52v-24.96c0-6.89,5.63-12.52,12.52-12.52h24.96
	c6.89,0,12.52,5.63,12.52,12.52v24.96C1849,1020.37,1843.37,1026,1836.48,1026z"/>
</svg>
